<svg width="93" height="25" viewBox="0 0 93 25" fill="none" xmlns="http://www.w3.org/2000/svg">
<g clip-path="url(#clip0_2_242)">
<path d="M22.7435 6.25138C22.7433 6.25094 22.7429 6.25013 22.7425 6.24929C22.7414 6.24785 22.7402 6.24599 22.7392 6.24455C22.7135 6.20169 22.6862 6.16026 22.6569 6.11987C22.6493 6.10936 22.6412 6.09946 22.6331 6.08895C22.61 6.05866 22.5862 6.02919 22.561 6.00054C22.5468 5.98426 22.5316 5.96839 22.517 5.95273C22.4965 5.93171 22.4759 5.91089 22.4543 5.89049C22.4345 5.87194 22.414 5.85359 22.3936 5.83628C22.3746 5.82041 22.3558 5.80496 22.3363 5.78971C22.3128 5.77116 22.2884 5.75364 22.2638 5.73633C22.2451 5.72355 22.2268 5.71098 22.2076 5.69861C22.1813 5.68213 22.1548 5.66646 22.1278 5.65142C22.1085 5.64049 22.0891 5.62998 22.0693 5.61989C22.0412 5.60566 22.0127 5.59206 21.9837 5.5797C21.9641 5.57104 21.9445 5.56239 21.9242 5.55435C21.8932 5.54219 21.8616 5.53127 21.8299 5.52076C21.8117 5.51499 21.7938 5.50901 21.7754 5.50386C21.7386 5.49314 21.7012 5.48366 21.6636 5.47562C21.6504 5.47294 21.6373 5.46964 21.6241 5.46717C21.5776 5.4581 21.5303 5.4513 21.4834 5.44615C21.4784 5.44574 21.474 5.44491 21.4693 5.4445C21.1334 5.41091 20.7843 5.47479 20.4695 5.65266L11.6933 10.6168L5.41689 7.06644L11.6985 3.513L15.8865 5.88039C16.6824 6.32988 17.7002 6.06319 18.1599 5.28354C18.6195 4.50369 18.3467 3.5062 17.5507 3.05609L12.531 0.218407C12.0161 -0.0728022 11.3816 -0.0728022 10.8668 0.218407L1.29621 5.63184C1.03393 5.77054 0.805337 5.97808 0.645363 6.24929C0.185489 7.02938 0.458106 8.02644 1.25405 8.47631L10.8616 13.9114C10.863 13.9122 10.8643 13.9124 10.8655 13.9132C10.9159 13.9415 10.9682 13.9656 11.0211 13.9883C11.0358 13.9947 11.0499 14.0029 11.0645 14.0087C11.0964 14.0214 11.1295 14.0303 11.1619 14.0408C11.3358 14.0983 11.5143 14.1301 11.692 14.1301C11.6925 14.1301 11.6931 14.1301 11.6937 14.1301C11.6939 14.1301 11.6945 14.1301 11.6952 14.1301C11.8769 14.1301 12.0595 14.0973 12.2366 14.0371C12.265 14.0274 12.2941 14.0202 12.322 14.0089C12.3388 14.0023 12.3549 13.9928 12.3716 13.9856C12.4225 13.9636 12.4729 13.9404 12.5213 13.9132C12.5227 13.9124 12.5242 13.9122 12.5256 13.9114L19.6399 9.88763V16.9943L11.6958 21.4874L3.75267 16.9943V12.5009C3.75267 11.6005 3.00736 10.8707 2.08864 10.8707C1.16952 10.8707 0.424417 11.6005 0.424417 12.5009V17.9356C0.424417 18.518 0.741264 19.0559 1.25632 19.3471L10.8639 24.7819C11.121 24.9272 11.4085 25 11.6958 25C11.9831 25 12.2706 24.9272 12.5279 24.7819L22.1358 19.3471C22.6509 19.0559 22.9678 18.518 22.9678 17.9356V7.06644C22.9678 6.76925 22.8855 6.49144 22.7435 6.25138Z" fill="white"/>
<path fill-rule="evenodd" clip-rule="evenodd" d="M31.5983 15.3739C32.1536 15.7338 32.7175 16.0007 33.2901 16.1748C33.8628 16.349 34.4267 16.436 34.982 16.436C35.5373 16.436 35.9855 16.3083 36.3268 16.053C36.6681 15.7976 36.8387 15.4668 36.8387 15.0605C36.8387 14.7239 36.7028 14.4598 36.4309 14.2683C36.159 14.0768 35.8178 13.9056 35.4071 13.7547C34.9964 13.6038 34.554 13.45 34.0796 13.2933C33.6054 13.1367 33.1629 12.9277 32.7523 12.6665C32.3416 12.4053 32.0003 12.06 31.7285 11.6306C31.4566 11.2011 31.3207 10.6382 31.3207 9.94172C31.3207 9.40778 31.4306 8.92028 31.6504 8.47922C31.8702 8.03816 32.1767 7.65797 32.57 7.33878C32.9634 7.0196 33.4348 6.77291 33.9842 6.59885C34.5337 6.42472 35.1381 6.33766 35.7975 6.33766C36.3528 6.33766 36.9052 6.38991 37.4546 6.49435C38.0042 6.59885 38.5565 6.76135 39.1118 6.98185V9.52384C38.5912 9.22209 38.0707 8.99866 37.5501 8.85353C37.0295 8.70847 36.5148 8.63591 36.0057 8.63591C35.4736 8.63591 35.0427 8.75197 34.713 8.9841C34.3834 9.21628 34.2185 9.52384 34.2185 9.90691C34.2185 10.2319 34.3544 10.4873 34.6263 10.673C34.8981 10.8587 35.2365 11.0241 35.6413 11.1692C36.0462 11.3143 36.4887 11.4652 36.9688 11.6219C37.4488 11.7786 37.8913 11.9904 38.2962 12.2574C38.7011 12.5243 39.0395 12.8755 39.3113 13.3107C39.5832 13.746 39.7191 14.3177 39.7191 15.0257C39.7191 15.5713 39.6063 16.0733 39.3807 16.5318C39.1552 16.9903 38.8428 17.382 38.4437 17.707C38.0446 18.032 37.5674 18.2845 37.0122 18.4644C36.4569 18.6443 35.8496 18.7342 35.1902 18.7342C33.9756 18.7342 32.7782 18.4731 31.5983 17.9508V15.3739ZM40.5624 6.00686H43.3908V10.4292C44.1427 9.88366 44.9352 9.61091 45.768 9.61091C46.2192 9.61091 46.6356 9.68928 47.0174 9.84597C47.3991 10.0027 47.7288 10.2232 48.0064 10.5076C48.2841 10.792 48.501 11.1315 48.6572 11.5261C48.8133 11.9208 48.8914 12.3502 48.8914 12.8145V18.5253H46.063V13.3368C46.063 12.977 45.9502 12.681 45.7247 12.4489C45.4991 12.2168 45.2128 12.1007 44.8657 12.1007C44.3452 12.1007 43.8535 12.3328 43.3908 12.7971V18.5253H40.5624V6.00686ZM50.0471 9.81984H52.8754V18.5253H50.0471V9.81984ZM49.9082 7.50422C49.9082 7.03991 50.0529 6.6656 50.3421 6.38122C50.6313 6.09681 51.0072 5.95462 51.4699 5.95462C51.9095 5.95462 52.2768 6.09681 52.5718 6.38122C52.8668 6.6656 53.0143 7.03991 53.0143 7.50422C53.0143 7.94528 52.8668 8.31091 52.5718 8.60109C52.2768 8.89128 51.9095 9.03635 51.4699 9.03635C51.0072 9.03635 50.6313 8.89128 50.3421 8.60109C50.0529 8.31091 49.9082 7.94528 49.9082 7.50422ZM60.0176 14.1726C60.0176 13.5342 59.8585 13.0205 59.5404 12.6317C59.2223 12.2428 58.8087 12.0485 58.2997 12.0485C57.7907 12.0485 57.3338 12.2516 56.9289 12.6578V15.6873C57.3338 16.0936 57.7907 16.2967 58.2997 16.2967C58.8087 16.2967 59.2223 16.0994 59.5404 15.7047C59.8585 15.3101 60.0176 14.7994 60.0176 14.1726ZM54.1005 9.81984H56.9289V10.29C57.5883 9.83728 58.265 9.61091 58.9591 9.61091C59.5375 9.61091 60.0696 9.72409 60.5555 9.95041C61.0414 10.1768 61.4578 10.4902 61.8048 10.8906C62.1519 11.2911 62.4208 11.7698 62.6117 12.327C62.8029 12.8842 62.8982 13.4993 62.8982 14.1726C62.8982 14.8458 62.8029 15.461 62.6117 16.0182C62.4208 16.5753 62.1519 17.0541 61.8048 17.4545C61.4578 17.855 61.0414 18.1684 60.5555 18.3947C60.0696 18.6211 59.5375 18.7342 58.9591 18.7342C58.265 18.7342 57.5883 18.5079 56.9289 18.0552V22.3383H54.1005V9.81984ZM66.6742 16.2967H68.5304C68.9701 16.2967 69.3314 16.1662 69.6148 15.905C69.8982 15.6438 70.0402 15.3101 70.0402 14.9038C70.0402 14.4976 69.8982 14.1639 69.6148 13.9027C69.3314 13.6415 68.9701 13.511 68.5304 13.511H66.6742V16.2967ZM66.6742 11.352H68.2874C68.6923 11.352 69.028 11.2302 69.294 10.9864C69.56 10.7427 69.6933 10.435 69.6933 10.0636C69.6933 9.68053 69.56 9.3701 69.294 9.1321C69.028 8.89416 68.6923 8.77522 68.2874 8.77522H66.6742V11.352ZM63.9148 6.5466H68.8256C69.3576 6.5466 69.8434 6.62785 70.2832 6.79035C70.7229 6.95285 71.1041 7.17922 71.428 7.46935C71.7519 7.75953 72.0036 8.10197 72.183 8.49659C72.3624 8.89128 72.4521 9.32072 72.4521 9.78503C72.4521 10.377 72.3132 10.9052 72.0354 11.3694C71.7582 11.8337 71.3763 12.1762 70.8905 12.3967C71.5152 12.6288 71.998 12.9915 72.3393 13.4848C72.6807 13.9782 72.8513 14.544 72.8513 15.1824C72.8513 15.6699 72.7585 16.1197 72.5735 16.5318C72.3885 16.9438 72.1313 17.2978 71.8011 17.5938C71.4716 17.8898 71.0786 18.119 70.6214 18.2815C70.1642 18.4441 69.664 18.5253 69.1202 18.5253H63.9148V6.5466ZM73.1914 14.1726C73.1914 13.4993 73.3067 12.8842 73.5384 12.327C73.7695 11.7698 74.0934 11.2911 74.5101 10.8906C74.9268 10.4902 75.4208 10.1768 75.9938 9.95041C76.5662 9.72409 77.1941 9.61091 77.8762 9.61091C78.5589 9.61091 79.1867 9.72409 79.7592 9.95041C80.3316 10.1768 80.8231 10.4902 81.2342 10.8906C81.6447 11.2911 81.9654 11.7698 82.1972 12.327C82.4282 12.8842 82.5441 13.4993 82.5441 14.1726C82.5441 14.8342 82.4282 15.4465 82.1972 16.0094C81.9654 16.5724 81.6447 17.0541 81.2342 17.4545C80.8231 17.855 80.3316 18.1684 79.7592 18.3947C79.1867 18.6211 78.5589 18.7342 77.8762 18.7342C77.1941 18.7342 76.5662 18.6211 75.9938 18.3947C75.4208 18.1684 74.9268 17.855 74.5101 17.4545C74.0934 17.0541 73.7695 16.5724 73.5384 16.0094C73.3067 15.4465 73.1914 14.8342 73.1914 14.1726ZM76.0891 14.1726C76.0891 14.8342 76.2542 15.3652 76.5837 15.7657C76.9132 16.1662 77.3442 16.3663 77.8762 16.3663C78.3969 16.3663 78.8248 16.1662 79.1606 15.7657C79.4957 15.3652 79.6639 14.8342 79.6639 14.1726C79.6639 13.511 79.4957 12.9799 79.1606 12.5795C78.8248 12.179 78.3969 11.9788 77.8762 11.9788C77.3442 11.9788 76.9132 12.179 76.5837 12.5795C76.2542 12.9799 76.0891 13.511 76.0891 14.1726ZM89.148 14.1726C89.148 13.5342 88.9891 13.0205 88.6708 12.6317C88.3532 12.2428 87.9396 12.0485 87.4307 12.0485C86.9211 12.0485 86.4646 12.2516 86.0597 12.6578V15.6873C86.4646 16.0936 86.9211 16.2967 87.4307 16.2967C87.9396 16.2967 88.3532 16.0994 88.6708 15.7047C88.9891 15.3101 89.148 14.7994 89.148 14.1726ZM83.2312 6.00686H86.0597V10.29C86.7187 9.83728 87.3958 9.61091 88.0897 9.61091C88.6683 9.61091 89.2003 9.72409 89.6861 9.95041C90.172 10.1768 90.5887 10.4902 90.9357 10.8906C91.2826 11.2911 91.5517 11.7698 91.7423 12.327C91.9335 12.8842 92.0288 13.4993 92.0288 14.1726C92.0288 14.8458 91.9335 15.461 91.7423 16.0182C91.5517 16.5753 91.2826 17.0541 90.9357 17.4545C90.5887 17.855 90.172 18.1684 89.6861 18.3947C89.2003 18.6211 88.6683 18.7342 88.0897 18.7342C87.3958 18.7342 86.7187 18.5079 86.0597 18.0552V18.5253H83.2312V6.00686Z" fill="white"/>
</g>
<defs>
<clipPath id="clip0_2_242">
<rect width="92.1875" height="25" fill="white" transform="translate(0.421875)"/>
</clipPath>
</defs>
</svg>
