<svg width="56" height="25" viewBox="0 0 56 25" fill="none" xmlns="http://www.w3.org/2000/svg">
<g clip-path="url(#clip0_2_245)">
<path fill-rule="evenodd" clip-rule="evenodd" d="M9.98385 10.8476C9.80467 10.6879 9.55443 10.6346 9.32539 10.7069L3.09369 12.6733L11.9981 4.15569C12.2723 3.89284 12.2816 3.4572 12.019 3.18275C12.0062 3.16961 11.9935 3.15685 11.9796 3.14487L8.6554 0.174649C8.37158 -0.0785381 7.93674 -0.0534128 7.68377 0.230312C7.65478 0.263169 7.62892 0.298344 7.60655 0.335839L0.371155 12.4861C0.2414 12.7041 0.284266 12.984 0.473878 13.1529L1.8838 14.4146C2.0572 14.5693 2.29701 14.6253 2.521 14.5631L7.56946 13.156L1.75869 22.2866C1.47832 22.7277 2.0599 23.2054 2.43719 22.8436L12.1445 13.5379C12.355 13.335 12.3612 12.9995 12.158 12.7888C12.1491 12.7796 12.1398 12.7706 12.1302 12.7618L9.98385 10.8476Z" fill="white"/>
<path fill-rule="evenodd" clip-rule="evenodd" d="M55.3035 9.54544L54.3394 8.68581C54.2086 8.569 54.0079 8.58031 53.891 8.71113C53.8649 8.74075 53.8438 8.775 53.8302 8.81244L51.8477 14.1605C50.898 16.7226 49.7723 17.5997 49.0663 17.5997C48.8407 17.5997 48.5196 17.4357 48.5196 16.8892C48.5196 16.7035 48.5523 16.3109 48.7822 15.6904L50.6708 10.599C50.8088 10.2274 50.7047 9.8095 50.409 9.54581L49.4446 8.68581C49.3137 8.569 49.113 8.58031 48.9961 8.71113C48.97 8.74075 48.949 8.775 48.9354 8.81244L46.9532 14.1605C46.004 16.7226 44.8779 17.5997 44.1726 17.5997C43.9466 17.5997 43.6255 17.4357 43.6255 16.8892C43.6255 16.7035 43.6587 16.3109 43.8878 15.6904L48.0123 4.55726C48.1502 4.18607 48.0462 3.76815 47.7508 3.50408L46.786 2.64408C46.6555 2.52724 46.4548 2.53892 46.3379 2.6694C46.3114 2.699 46.2907 2.73367 46.2767 2.77067L42.0556 14.1605C41.7556 14.9694 41.6153 15.7921 41.6153 16.2711C41.6153 17.8914 42.7091 18.8215 43.8874 18.8215C44.7707 18.8215 45.746 18.2564 46.6294 17.0929C46.9318 18.1964 47.8244 18.8215 48.7819 18.8215C49.3153 18.8215 49.8834 18.6131 50.4449 18.1952L49.0565 21.9382C47.6211 21.2581 45.9826 21.1413 44.4653 21.6118C44.2802 21.6683 44.3184 21.9382 44.5093 21.9569C46.4845 22.1427 48.1097 22.9964 49.3094 24.6007C49.5249 24.8866 49.9313 24.9439 50.2169 24.7285C50.3159 24.6541 50.3915 24.5532 50.4343 24.4372L55.5642 10.6006C55.7029 10.2286 55.5996 9.80988 55.3035 9.54544Z" fill="white"/>
<path fill-rule="evenodd" clip-rule="evenodd" d="M34.6135 17.5916C34.2268 17.5916 33.9384 17.2113 33.9384 16.645C33.9384 16.4557 33.9974 16.0048 34.2291 15.373C35.5547 11.915 37.3583 10.0382 38.1672 10.0382C38.7015 10.0382 38.783 10.5942 38.783 11.2566C38.783 13.9558 36.3755 17.5896 34.6135 17.5896V17.5916ZM38.905 8.42447C37.9508 8.42447 37.0636 8.97253 36.2704 9.80915L38.2955 4.30048C38.4348 3.92186 38.3297 3.49601 38.0315 3.22732L37.0554 2.35061C36.9235 2.23155 36.7205 2.24306 36.6029 2.37641C36.5761 2.40657 36.5553 2.4415 36.5411 2.4796L32.2788 14.0852C31.9759 14.9098 31.8346 15.7477 31.8346 16.2358C31.8346 17.8075 32.9351 18.8346 34.431 18.8346C37.9607 18.8346 41.1457 14.6495 41.1457 11.274C41.1437 9.62103 40.3478 8.42447 38.905 8.42447Z" fill="white"/>
<path fill-rule="evenodd" clip-rule="evenodd" d="M25.5955 17.5916C25.2083 17.5916 24.9195 17.2113 24.9195 16.645C24.9195 16.4557 24.9786 16.0048 25.2106 15.373C26.5379 11.915 28.3438 10.0382 29.1538 10.0382C29.6892 10.0382 29.7707 10.5942 29.7707 11.2566C29.77 13.9558 27.3616 17.5896 25.5951 17.5896L25.5955 17.5916ZM27.2549 9.80915L29.2822 4.30048C29.4217 3.92186 29.3169 3.49601 29.0179 3.22732L28.0408 2.35061C27.9085 2.23155 27.7056 2.24306 27.5874 2.37641C27.5606 2.40657 27.5398 2.4415 27.5259 2.4796L23.2578 14.0852C22.2965 16.6954 21.1591 17.5896 20.4453 17.5896C20.2168 17.5896 19.8925 17.4229 19.8925 16.8657C19.8925 16.6763 19.9256 16.2763 20.158 15.6441L22.066 10.4561C22.2059 10.0778 22.1007 9.65159 21.8021 9.38253L20.8266 8.50622C20.6947 8.38753 20.4914 8.39903 20.3736 8.53203C20.3468 8.56259 20.3259 8.59709 20.3117 8.63559L18.3073 14.0852C17.3475 16.6958 16.209 17.5896 15.4956 17.5896C15.267 17.5896 14.9424 17.4229 14.9424 16.8657C14.9424 16.6763 14.9755 16.2763 15.2076 15.6441L17.1155 10.4561C17.255 10.0778 17.1498 9.65203 16.8504 9.38291L15.8757 8.50659C15.7437 8.38797 15.5409 8.39947 15.4226 8.53241C15.3958 8.56259 15.375 8.59791 15.3608 8.63597L13.3571 14.0852C13.0542 14.9098 12.912 15.7477 12.912 16.2358C12.912 17.8873 14.0174 18.8346 15.2087 18.8346C16.1018 18.8346 17.0879 18.2587 17.9811 17.0737C18.2868 18.198 19.1893 18.8346 20.1569 18.8346C21.0528 18.8346 22.0435 18.2555 22.9363 17.0633C23.2562 18.1535 24.1977 18.8346 25.4092 18.8346C28.9442 18.8346 32.1349 14.6495 32.1349 11.274C32.1341 9.62103 31.3371 8.42447 29.8929 8.42447C28.9371 8.42447 28.0488 8.97253 27.2549 9.80915Z" fill="white"/>
</g>
<defs>
<clipPath id="clip0_2_245">
<rect width="55.4688" height="25" fill="white" transform="translate(0.296875)"/>
</clipPath>
</defs>
</svg>
