<svg width="118" height="25" viewBox="0 0 118 25" fill="none" xmlns="http://www.w3.org/2000/svg">
<g clip-path="url(#clip0_2_264)">
<path fill-rule="evenodd" clip-rule="evenodd" d="M15.0916 0.171745C14.9777 0.305419 14.9712 0.48059 14.9551 4.02874C14.9445 6.28245 14.9144 7.74608 14.8791 7.74608C14.8467 7.74608 14.7696 7.68981 14.708 7.62118C14.5797 7.47754 13.9119 7.0378 13.4282 6.77763C12.1451 6.08812 9.95024 5.72621 8.40276 5.94926C7.28218 6.11046 5.32916 6.84787 4.87852 7.27922C4.80968 7.34546 4.55577 7.5342 4.31428 7.69899C3.89411 7.98549 2.46471 9.45429 2.46471 9.5992C2.46471 9.6367 2.30521 9.91438 2.10999 10.2164C1.5277 11.1187 1.2689 11.7998 0.913804 13.366C0.635823 14.5922 0.75657 16.5981 1.2121 18.3203C1.38551 18.9767 2.21193 20.6151 2.4143 20.7037C2.44214 20.7156 2.46471 20.7568 2.46471 20.7946C2.46471 21.0281 3.59807 22.2396 4.40832 22.872C6.5987 24.5822 9.94013 25.0926 12.4713 24.1034C13.1499 23.8385 14.375 23.1748 14.6816 22.9063L14.9096 22.7064L14.9408 23.4678C14.9693 24.1577 14.9863 24.2451 15.124 24.4003L15.2759 24.5719H16.6688C17.9467 24.5719 18.0738 24.5615 18.2096 24.4446L18.3574 24.3177V13.0416C18.3574 3.10539 18.3466 1.75429 18.2634 1.66929C18.2119 1.61622 17.9719 1.4622 17.7307 1.32653C17.4892 1.19086 17.2353 1.02766 17.1665 0.963411C16.3623 0.216435 15.3748 -0.160245 15.0916 0.171745ZM67.7693 0.153389C67.6809 0.257137 67.6658 0.451064 67.6658 1.46858C67.6658 2.82887 67.6613 2.81411 68.1812 3.16485C68.3633 3.28775 68.5656 3.43978 68.6307 3.50282C68.6962 3.56587 68.908 3.70354 69.1009 3.80848C69.2942 3.91342 69.6449 4.13927 69.8796 4.31005C70.4412 4.71826 70.774 4.73023 70.9595 4.34956C71.0971 4.06704 71.0938 0.511716 70.9553 0.228007L70.8598 0.0316858H69.3665C67.9995 0.0316858 67.8645 0.0420607 67.7693 0.153389ZM104.812 0.0767755C103.921 0.196484 102.416 0.676514 101.659 1.08193C101.462 1.18767 101.223 1.29461 101.129 1.31895C100.927 1.37202 99.7296 2.21755 99.1131 2.74347C98.3047 3.43299 96.9944 4.96805 96.6929 5.57936C96.4823 6.00552 96.1775 6.5502 96.1325 6.57972C96.0535 6.6316 95.4591 8.15189 95.313 8.67741C94.7483 10.7033 94.7492 10.6937 94.7492 16.8794V22.2383L94.9003 22.6804C94.9835 22.9238 95.1202 23.202 95.2026 23.2986C95.285 23.3955 95.3988 23.5523 95.454 23.6477C95.5983 23.8943 96.2072 24.3046 96.6445 24.4489C97.1566 24.6178 106.498 24.6365 107.602 24.4705C109.369 24.2052 111.554 23.3046 112.773 22.3385C112.98 22.1745 113.207 22.0149 113.277 21.9838C113.346 21.9522 113.666 21.6613 113.989 21.3373C114.312 21.0129 114.601 20.7376 114.631 20.7253C114.662 20.7129 114.905 20.4148 115.172 20.0629C115.44 19.7109 115.717 19.3534 115.792 19.2688C115.865 19.1842 116.03 18.8989 116.158 18.6347C116.286 18.3702 116.428 18.1092 116.475 18.0541C116.521 17.9987 116.696 17.6392 116.866 17.2549C118.134 14.3743 118.178 10.4396 116.975 7.51265C116.78 7.0374 116.582 6.60406 116.536 6.549C116.49 6.49433 116.351 6.23496 116.228 5.9732C115.763 4.9888 114.184 3.13293 113.212 2.43183C113.04 2.30694 112.758 2.09466 112.585 1.95899C110.817 0.570374 107.362 -0.265989 104.812 0.0767755ZM107.194 4.65721C108.56 5.03469 109.655 6.20623 110.014 7.67585C110.18 8.3542 110.151 12.603 109.977 13.2255C109.836 13.7295 109.67 14.1129 109.495 14.342C108.693 15.3946 108.176 15.8008 107.269 16.0909C105.429 16.6791 103.244 15.4278 102.661 13.4521C102.474 12.8201 102.371 8.75362 102.52 7.93921C102.961 5.53946 105.058 4.06705 107.194 4.65721ZM28.7018 5.85988C27.3559 5.97799 25.2234 6.78004 24.4896 7.44402C24.3583 7.56293 24.1537 7.71336 24.0348 7.778C23.6154 8.00704 22.3567 9.46991 22.0024 10.1403C20.9609 12.1103 20.646 13.2874 20.646 15.2075C20.646 23.2695 29.646 27.5733 35.3139 22.222C37.2481 20.3956 37.3257 19.9903 35.8078 19.6267C35.3824 19.525 34.773 19.3686 34.4544 19.28C33.5922 19.0397 33.4437 19.0553 33.048 19.4284C31.177 21.1913 28.5314 21.404 26.5084 19.9543C25.5233 19.2484 24.6939 18.1771 24.44 17.2829L24.3572 16.9904H31.1152H37.8733L38.0757 16.7896L38.2784 16.5889L38.243 15.2434C38.2227 14.4581 38.1705 13.7179 38.1174 13.4657C38.0678 13.2279 37.9806 12.8089 37.9233 12.5344C37.8083 11.9818 37.279 10.7552 36.9337 10.24C36.8111 10.0572 36.6933 9.84777 36.6722 9.77438C36.5977 9.515 35.2819 8.07567 34.846 7.7764C34.6733 7.6583 34.427 7.47195 34.2979 7.36221C33.1732 6.40734 30.5356 5.69946 28.7018 5.85988ZM46.9455 5.95125C46.4053 6.00153 45.5037 6.22818 45.2167 6.38539C45.1192 6.43887 44.9952 6.48276 44.9406 6.48276C44.1503 6.48276 42.1529 8.48348 41.3968 10.0329C40.4749 11.9211 40.4489 12.1704 40.4707 18.8749L40.4884 24.2511L40.6641 24.4114C40.8905 24.6178 43.3995 24.6648 43.6827 24.4681C43.9355 24.2921 43.9355 24.2917 43.9678 18.4536L43.9991 12.7674L44.1913 12.2646C44.2974 11.9881 44.5419 11.5392 44.7348 11.2671C45.3725 10.3673 45.3178 10.4168 46.2248 9.91643C47.1904 9.3833 48.2286 9.42839 49.1698 10.0441C49.4184 10.2069 49.6418 10.3397 49.6659 10.3397C49.8972 10.3397 50.8169 11.7974 51.0246 12.4925C51.2826 13.3572 51.3018 13.8221 51.3022 19.189C51.3029 24.2207 51.3044 24.2826 51.4305 24.4263C51.6393 24.664 54.2182 24.6513 54.4811 24.4114L54.6568 24.2511L54.691 18.6754L54.7256 13.0998L54.919 12.4681C56.1189 8.55092 60.5065 8.62234 61.8181 12.5807L61.9904 13.0998L62.0223 18.7261C62.0491 23.3592 62.0697 24.3715 62.1409 24.4621C62.2981 24.6632 65.0899 24.6238 65.2723 24.4179L65.4089 24.2642V18.6771C65.4089 12.38 65.4164 12.5069 64.9406 11.0408C64.5306 9.77714 63.5668 8.23409 62.9014 7.77521C62.7807 7.69221 62.5595 7.50626 62.4098 7.36262C61.2264 6.22459 58.5692 5.61368 56.8622 6.08732C55.3869 6.49672 54.4326 7.07053 53.4211 8.15588L52.9378 8.67462L52.6688 8.33983C51.3451 6.69105 49.0922 5.75055 46.9455 5.95125ZM68.0589 5.9309C67.635 6.01749 67.6658 5.28967 67.6658 15.2985V24.2962L67.831 24.4342C67.9968 24.5727 70.4637 24.6537 70.7661 24.5304C71.0596 24.4111 71.0513 24.69 71.0513 15.2613C71.0513 5.58854 71.0705 6.09729 70.6992 5.94766C70.5472 5.88621 68.3444 5.87225 68.0589 5.9309ZM80.6117 6.0135C79.8444 6.15875 78.7384 6.52585 78.1953 6.81635C77.7748 7.041 77.124 7.46277 77.0699 7.54577C77.0526 7.57171 76.9114 7.67664 76.7561 7.778C76.6011 7.87975 76.2092 8.25085 75.8857 8.60279C73.7551 10.9191 72.9577 13.6724 73.4372 17.057C73.7709 19.4104 75.675 22.2296 77.6965 23.3632C78.5358 23.8337 78.7155 23.9198 79.3136 24.1381C82.4275 25.2746 86.0297 24.3631 88.4168 21.8357C90.4056 19.7304 91.4076 16.134 90.7775 13.366C90.4226 11.8034 90.1967 11.1896 89.6778 10.3733C89.5156 10.1171 89.3084 9.77313 89.2176 9.6083C88.9849 9.185 87.8886 8.05453 87.2746 7.60403C85.3231 6.17312 82.868 5.58695 80.6117 6.0135ZM105.584 5.95524C104.869 6.13441 104.173 6.80597 103.909 7.5713L103.745 8.04535V10.3733C103.745 12.6365 103.75 12.7128 103.891 13.1329C104.619 15.3048 107.591 15.4952 108.564 13.4322C108.848 12.8296 108.864 12.641 108.843 10.2057L108.824 7.91247L108.63 7.48032C108.083 6.2601 106.843 5.63962 105.584 5.95524ZM106.698 8.77038L106.912 8.99661V10.7176C106.912 12.2304 106.899 12.4582 106.805 12.603C106.537 13.0153 106.197 13.0536 105.871 12.7076L105.658 12.4813V10.7388V8.99661L105.871 8.77038C106.025 8.60758 106.14 8.54414 106.284 8.54414C106.43 8.54414 106.545 8.60758 106.698 8.77038ZM10.8207 9.67063C14.6414 10.7124 16.2024 15.3711 13.8421 18.6863C13.3959 19.3127 13.2311 19.4754 12.436 20.0764C10.402 21.613 7.23328 21.0879 5.45141 18.9188C2.09645 14.8352 5.8776 8.32227 10.8207 9.67063ZM30.8335 9.67455C32.4551 10.2049 33.7419 11.3745 34.3434 12.8644L34.559 13.3991H29.4545H24.3504L24.4354 13.1433C24.6122 12.6114 25.0331 11.8613 25.3171 11.5704C25.3886 11.497 25.5093 11.3513 25.5853 11.246C26.557 9.89839 29.1461 9.12313 30.8335 9.67455ZM83.4954 9.70973C84.5685 10.0396 85.1663 10.4124 85.9227 11.2236C89.7432 15.3228 86.1571 22.0863 80.8499 20.7899C79.9655 20.574 79.6454 20.4004 78.6279 19.5848C77.1089 18.367 76.4074 15.9289 76.9445 13.7363C77.6833 10.7229 80.7197 8.85657 83.4954 9.70973ZM112.717 14.1572C112.834 14.2818 112.93 14.4481 112.93 14.5276C112.93 14.9026 112.261 16.6891 112.058 16.8575C112.036 16.8754 111.842 17.13 111.625 17.4225C111.409 17.7154 111.138 18.0294 111.025 18.1208C110.909 18.2126 110.608 18.4555 110.353 18.6614C109.656 19.2249 109.014 19.527 107.758 19.8837C106.22 20.3206 103.773 19.8546 102.436 18.8702C101.515 18.1926 100.442 17.0143 100.299 16.5246C100.271 16.4333 100.157 16.1623 100.044 15.9221C99.5012 14.7726 99.5887 14.164 100.298 14.164C100.654 14.164 100.793 14.3077 100.962 14.8531C101.037 15.0957 101.193 15.468 101.309 15.6804C101.425 15.8926 101.521 16.0902 101.521 16.1193C101.521 16.3766 102.805 17.6571 103.351 17.9429C106.66 19.6786 110.485 18.2824 111.519 14.9621C111.843 13.9195 112.242 13.6525 112.717 14.1572Z" fill="white"/>
<path fill-rule="evenodd" clip-rule="evenodd" d="M15.0916 0.171745C14.9777 0.305419 14.9712 0.48059 14.9551 4.02874C14.9445 6.28245 14.9144 7.74608 14.8791 7.74608C14.8467 7.74608 14.7696 7.68981 14.708 7.62118C14.5797 7.47754 13.9119 7.0378 13.4282 6.77763C12.1451 6.08812 9.95024 5.72621 8.40276 5.94926C7.28218 6.11046 5.32916 6.84787 4.87852 7.27922C4.80968 7.34546 4.55577 7.5342 4.31428 7.69899C3.89411 7.98549 2.46471 9.45429 2.46471 9.5992C2.46471 9.6367 2.30521 9.91438 2.10999 10.2164C1.5277 11.1187 1.2689 11.7998 0.913804 13.366C0.635823 14.5922 0.75657 16.5981 1.2121 18.3203C1.38551 18.9767 2.21193 20.6151 2.4143 20.7037C2.44214 20.7156 2.46471 20.7568 2.46471 20.7946C2.46471 21.0281 3.59807 22.2396 4.40832 22.872C6.5987 24.5822 9.94013 25.0926 12.4713 24.1034C13.1499 23.8385 14.375 23.1748 14.6816 22.9063L14.9096 22.7064L14.9408 23.4678C14.9693 24.1577 14.9863 24.2451 15.124 24.4003L15.2759 24.5719H16.6688C17.9467 24.5719 18.0738 24.5615 18.2096 24.4446L18.3574 24.3177V13.0416C18.3574 3.10539 18.3466 1.75429 18.2634 1.66929C18.2119 1.61622 17.9719 1.4622 17.7307 1.32653C17.4892 1.19086 17.2353 1.02766 17.1665 0.963411C16.3623 0.216435 15.3748 -0.160245 15.0916 0.171745ZM67.7693 0.153389C67.6809 0.257137 67.6658 0.451064 67.6658 1.46858C67.6658 2.82887 67.6613 2.81411 68.1812 3.16485C68.3633 3.28775 68.5656 3.43978 68.6307 3.50282C68.6962 3.56587 68.908 3.70354 69.1009 3.80848C69.2942 3.91342 69.6449 4.13927 69.8796 4.31005C70.4412 4.71826 70.774 4.73023 70.9595 4.34956C71.0971 4.06704 71.0938 0.511716 70.9553 0.228007L70.8598 0.0316858H69.3665C67.9995 0.0316858 67.8645 0.0420607 67.7693 0.153389ZM104.812 0.0767755C103.921 0.196484 102.416 0.676514 101.659 1.08193C101.462 1.18767 101.223 1.29461 101.129 1.31895C100.927 1.37202 99.7296 2.21755 99.1131 2.74347C98.3047 3.43299 96.9944 4.96805 96.6929 5.57936C96.4823 6.00552 96.1775 6.5502 96.1325 6.57972C96.0535 6.6316 95.4591 8.15189 95.313 8.67741C94.7483 10.7033 94.7492 10.6937 94.7492 16.8794V22.2383L94.9003 22.6804C94.9835 22.9238 95.1202 23.202 95.2026 23.2986C95.285 23.3955 95.3988 23.5523 95.454 23.6477C95.5983 23.8943 96.2072 24.3046 96.6445 24.4489C97.1566 24.6178 106.498 24.6365 107.602 24.4705C109.369 24.2052 111.554 23.3046 112.773 22.3385C112.98 22.1745 113.207 22.0149 113.277 21.9838C113.346 21.9522 113.666 21.6613 113.989 21.3373C114.312 21.0129 114.601 20.7376 114.631 20.7253C114.662 20.7129 114.905 20.4148 115.172 20.0629C115.44 19.7109 115.717 19.3534 115.792 19.2688C115.865 19.1842 116.03 18.8989 116.158 18.6347C116.286 18.3702 116.428 18.1092 116.475 18.0541C116.521 17.9987 116.696 17.6392 116.866 17.2549C118.134 14.3743 118.178 10.4396 116.975 7.51265C116.78 7.0374 116.582 6.60406 116.536 6.549C116.49 6.49433 116.351 6.23496 116.228 5.9732C115.763 4.9888 114.184 3.13293 113.212 2.43183C113.04 2.30694 112.758 2.09466 112.585 1.95899C110.817 0.570374 107.362 -0.265989 104.812 0.0767755ZM107.194 4.65721C108.56 5.03469 109.655 6.20623 110.014 7.67585C110.18 8.3542 110.151 12.603 109.977 13.2255C109.836 13.7295 109.67 14.1129 109.495 14.342C108.693 15.3946 108.176 15.8008 107.269 16.0909C105.429 16.6791 103.244 15.4278 102.661 13.4521C102.474 12.8201 102.371 8.75362 102.52 7.93921C102.961 5.53946 105.058 4.06705 107.194 4.65721ZM28.7018 5.85988C27.3559 5.97799 25.2234 6.78004 24.4896 7.44402C24.3583 7.56293 24.1537 7.71336 24.0348 7.778C23.6154 8.00704 22.3567 9.46991 22.0024 10.1403C20.9609 12.1103 20.646 13.2874 20.646 15.2075C20.646 23.2695 29.646 27.5733 35.3139 22.222C37.2481 20.3956 37.3257 19.9903 35.8078 19.6267C35.3824 19.525 34.773 19.3686 34.4544 19.28C33.5922 19.0397 33.4437 19.0553 33.048 19.4284C31.177 21.1913 28.5314 21.404 26.5084 19.9543C25.5233 19.2484 24.6939 18.1771 24.44 17.2829L24.3572 16.9904H31.1152H37.8733L38.0757 16.7896L38.2784 16.5889L38.243 15.2434C38.2227 14.4581 38.1705 13.7179 38.1174 13.4657C38.0678 13.2279 37.9806 12.8089 37.9233 12.5344C37.8083 11.9818 37.279 10.7552 36.9337 10.24C36.8111 10.0572 36.6933 9.84777 36.6722 9.77438C36.5977 9.515 35.2819 8.07567 34.846 7.7764C34.6733 7.6583 34.427 7.47195 34.2979 7.36221C33.1732 6.40734 30.5356 5.69946 28.7018 5.85988ZM46.9455 5.95125C46.4053 6.00153 45.5037 6.22818 45.2167 6.38539C45.1192 6.43887 44.9952 6.48276 44.9406 6.48276C44.1503 6.48276 42.1529 8.48348 41.3968 10.0329C40.4749 11.9211 40.4489 12.1704 40.4707 18.8749L40.4884 24.2511L40.6641 24.4114C40.8905 24.6178 43.3995 24.6648 43.6827 24.4681C43.9355 24.2921 43.9355 24.2917 43.9678 18.4536L43.9991 12.7674L44.1913 12.2646C44.2974 11.9881 44.5419 11.5392 44.7348 11.2671C45.3725 10.3673 45.3178 10.4168 46.2248 9.91643C47.1904 9.3833 48.2286 9.42839 49.1698 10.0441C49.4184 10.2069 49.6418 10.3397 49.6659 10.3397C49.8972 10.3397 50.8169 11.7974 51.0246 12.4925C51.2826 13.3572 51.3018 13.8221 51.3022 19.189C51.3029 24.2207 51.3044 24.2826 51.4305 24.4263C51.6393 24.664 54.2182 24.6513 54.4811 24.4114L54.6568 24.2511L54.691 18.6754L54.7256 13.0998L54.919 12.4681C56.1189 8.55092 60.5065 8.62234 61.8181 12.5807L61.9904 13.0998L62.0223 18.7261C62.0491 23.3592 62.0697 24.3715 62.1409 24.4621C62.2981 24.6632 65.0899 24.6238 65.2723 24.4179L65.4089 24.2642V18.6771C65.4089 12.38 65.4164 12.5069 64.9406 11.0408C64.5306 9.77714 63.5668 8.23409 62.9014 7.77521C62.7807 7.69221 62.5595 7.50626 62.4098 7.36262C61.2264 6.22459 58.5692 5.61368 56.8622 6.08732C55.3869 6.49672 54.4326 7.07053 53.4211 8.15588L52.9378 8.67462L52.6688 8.33983C51.3451 6.69105 49.0922 5.75055 46.9455 5.95125ZM68.0589 5.9309C67.635 6.01749 67.6658 5.28967 67.6658 15.2985V24.2962L67.831 24.4342C67.9968 24.5727 70.4637 24.6537 70.7661 24.5304C71.0596 24.4111 71.0513 24.69 71.0513 15.2613C71.0513 5.58854 71.0705 6.09729 70.6992 5.94766C70.5472 5.88621 68.3444 5.87225 68.0589 5.9309ZM80.6117 6.0135C79.8444 6.15875 78.7384 6.52585 78.1953 6.81635C77.7748 7.041 77.124 7.46277 77.0699 7.54577C77.0526 7.57171 76.9114 7.67664 76.7561 7.778C76.6011 7.87975 76.2092 8.25085 75.8857 8.60279C73.7551 10.9191 72.9577 13.6724 73.4372 17.057C73.7709 19.4104 75.675 22.2296 77.6965 23.3632C78.5358 23.8337 78.7155 23.9198 79.3136 24.1381C82.4275 25.2746 86.0297 24.3631 88.4168 21.8357C90.4056 19.7304 91.4076 16.134 90.7775 13.366C90.4226 11.8034 90.1967 11.1896 89.6778 10.3733C89.5156 10.1171 89.3084 9.77313 89.2176 9.6083C88.9849 9.185 87.8886 8.05453 87.2746 7.60403C85.3231 6.17312 82.868 5.58695 80.6117 6.0135ZM105.584 5.95524C104.869 6.13441 104.173 6.80597 103.909 7.5713L103.745 8.04535V10.3733C103.745 12.6365 103.75 12.7128 103.891 13.1329C104.619 15.3048 107.591 15.4952 108.564 13.4322C108.848 12.8296 108.864 12.641 108.843 10.2057L108.824 7.91247L108.63 7.48032C108.083 6.2601 106.843 5.63962 105.584 5.95524ZM106.698 8.77038L106.912 8.99661V10.7176C106.912 12.2304 106.899 12.4582 106.805 12.603C106.537 13.0153 106.197 13.0536 105.871 12.7076L105.658 12.4813V10.7388V8.99661L105.871 8.77038C106.025 8.60758 106.14 8.54414 106.284 8.54414C106.43 8.54414 106.545 8.60758 106.698 8.77038ZM10.8207 9.67063C14.6414 10.7124 16.2024 15.3711 13.8421 18.6863C13.3959 19.3127 13.2311 19.4754 12.436 20.0764C10.402 21.613 7.23328 21.0879 5.45141 18.9188C2.09645 14.8352 5.8776 8.32227 10.8207 9.67063ZM30.8335 9.67455C32.4551 10.2049 33.7419 11.3745 34.3434 12.8644L34.559 13.3991H29.4545H24.3504L24.4354 13.1433C24.6122 12.6114 25.0331 11.8613 25.3171 11.5704C25.3886 11.497 25.5093 11.3513 25.5853 11.246C26.557 9.89839 29.1461 9.12313 30.8335 9.67455ZM83.4954 9.70973C84.5685 10.0396 85.1663 10.4124 85.9227 11.2236C89.7432 15.3228 86.1571 22.0863 80.8499 20.7899C79.9655 20.574 79.6454 20.4004 78.6279 19.5848C77.1089 18.367 76.4074 15.9289 76.9445 13.7363C77.6833 10.7229 80.7197 8.85657 83.4954 9.70973ZM112.717 14.1572C112.834 14.2818 112.93 14.4481 112.93 14.5276C112.93 14.9026 112.261 16.6891 112.058 16.8575C112.036 16.8754 111.842 17.13 111.625 17.4225C111.409 17.7154 111.138 18.0294 111.025 18.1208C110.909 18.2126 110.608 18.4555 110.353 18.6614C109.656 19.2249 109.014 19.527 107.758 19.8837C106.22 20.3206 103.773 19.8546 102.436 18.8702C101.515 18.1926 100.442 17.0143 100.299 16.5246C100.271 16.4333 100.157 16.1623 100.044 15.9221C99.5012 14.7726 99.5887 14.164 100.298 14.164C100.654 14.164 100.793 14.3077 100.962 14.8531C101.037 15.0957 101.193 15.468 101.309 15.6804C101.425 15.8926 101.521 16.0902 101.521 16.1193C101.521 16.3766 102.805 17.6571 103.351 17.9429C106.66 19.6786 110.485 18.2824 111.519 14.9621C111.843 13.9195 112.242 13.6525 112.717 14.1572Z" fill="white"/>
<path fill-rule="evenodd" clip-rule="evenodd" d="M15.0916 0.171745C14.9777 0.305419 14.9712 0.48059 14.9551 4.02874C14.9445 6.28245 14.9144 7.74608 14.8791 7.74608C14.8467 7.74608 14.7696 7.68981 14.708 7.62118C14.5797 7.47754 13.9119 7.0378 13.4282 6.77763C12.1451 6.08812 9.95024 5.72621 8.40276 5.94926C7.28218 6.11046 5.32916 6.84787 4.87852 7.27922C4.80968 7.34546 4.55577 7.5342 4.31428 7.69899C3.89411 7.98549 2.46471 9.45429 2.46471 9.5992C2.46471 9.6367 2.30521 9.91438 2.10999 10.2164C1.5277 11.1187 1.2689 11.7998 0.913804 13.366C0.635823 14.5922 0.75657 16.5981 1.2121 18.3203C1.38551 18.9767 2.21193 20.6151 2.4143 20.7037C2.44214 20.7156 2.46471 20.7568 2.46471 20.7946C2.46471 21.0281 3.59807 22.2396 4.40832 22.872C6.5987 24.5822 9.94013 25.0926 12.4713 24.1034C13.1499 23.8385 14.375 23.1748 14.6816 22.9063L14.9096 22.7064L14.9408 23.4678C14.9693 24.1577 14.9863 24.2451 15.124 24.4003L15.2759 24.5719H16.6688C17.9467 24.5719 18.0738 24.5615 18.2096 24.4446L18.3574 24.3177V13.0416C18.3574 3.10539 18.3466 1.75429 18.2634 1.66929C18.2119 1.61622 17.9719 1.4622 17.7307 1.32653C17.4892 1.19086 17.2353 1.02766 17.1665 0.963411C16.3623 0.216435 15.3748 -0.160245 15.0916 0.171745ZM67.7693 0.153389C67.6809 0.257137 67.6658 0.451064 67.6658 1.46858C67.6658 2.82887 67.6613 2.81411 68.1812 3.16485C68.3633 3.28775 68.5656 3.43978 68.6307 3.50282C68.6962 3.56587 68.908 3.70354 69.1009 3.80848C69.2942 3.91342 69.6449 4.13927 69.8796 4.31005C70.4412 4.71826 70.774 4.73023 70.9595 4.34956C71.0971 4.06704 71.0938 0.511716 70.9553 0.228007L70.8598 0.0316858H69.3665C67.9995 0.0316858 67.8645 0.0420607 67.7693 0.153389ZM104.812 0.0767755C103.921 0.196484 102.416 0.676514 101.659 1.08193C101.462 1.18767 101.223 1.29461 101.129 1.31895C100.927 1.37202 99.7296 2.21755 99.1131 2.74347C98.3047 3.43299 96.9944 4.96805 96.6929 5.57936C96.4823 6.00552 96.1775 6.5502 96.1325 6.57972C96.0535 6.6316 95.4591 8.15189 95.313 8.67741C94.7483 10.7033 94.7492 10.6937 94.7492 16.8794V22.2383L94.9003 22.6804C94.9835 22.9238 95.1202 23.202 95.2026 23.2986C95.285 23.3955 95.3988 23.5523 95.454 23.6477C95.5983 23.8943 96.2072 24.3046 96.6445 24.4489C97.1566 24.6178 106.498 24.6365 107.602 24.4705C109.369 24.2052 111.554 23.3046 112.773 22.3385C112.98 22.1745 113.207 22.0149 113.277 21.9838C113.346 21.9522 113.666 21.6613 113.989 21.3373C114.312 21.0129 114.601 20.7376 114.631 20.7253C114.662 20.7129 114.905 20.4148 115.172 20.0629C115.44 19.7109 115.717 19.3534 115.792 19.2688C115.865 19.1842 116.03 18.8989 116.158 18.6347C116.286 18.3702 116.428 18.1092 116.475 18.0541C116.521 17.9987 116.696 17.6392 116.866 17.2549C118.134 14.3743 118.178 10.4396 116.975 7.51265C116.78 7.0374 116.582 6.60406 116.536 6.549C116.49 6.49433 116.351 6.23496 116.228 5.9732C115.763 4.9888 114.184 3.13293 113.212 2.43183C113.04 2.30694 112.758 2.09466 112.585 1.95899C110.817 0.570374 107.362 -0.265989 104.812 0.0767755ZM107.194 4.65721C108.56 5.03469 109.655 6.20623 110.014 7.67585C110.18 8.3542 110.151 12.603 109.977 13.2255C109.836 13.7295 109.67 14.1129 109.495 14.342C108.693 15.3946 108.176 15.8008 107.269 16.0909C105.429 16.6791 103.244 15.4278 102.661 13.4521C102.474 12.8201 102.371 8.75362 102.52 7.93921C102.961 5.53946 105.058 4.06705 107.194 4.65721ZM28.7018 5.85988C27.3559 5.97799 25.2234 6.78004 24.4896 7.44402C24.3583 7.56293 24.1537 7.71336 24.0348 7.778C23.6154 8.00704 22.3567 9.46991 22.0024 10.1403C20.9609 12.1103 20.646 13.2874 20.646 15.2075C20.646 23.2695 29.646 27.5733 35.3139 22.222C37.2481 20.3956 37.3257 19.9903 35.8078 19.6267C35.3824 19.525 34.773 19.3686 34.4544 19.28C33.5922 19.0397 33.4437 19.0553 33.048 19.4284C31.177 21.1913 28.5314 21.404 26.5084 19.9543C25.5233 19.2484 24.6939 18.1771 24.44 17.2829L24.3572 16.9904H31.1152H37.8733L38.0757 16.7896L38.2784 16.5889L38.243 15.2434C38.2227 14.4581 38.1705 13.7179 38.1174 13.4657C38.0678 13.2279 37.9806 12.8089 37.9233 12.5344C37.8083 11.9818 37.279 10.7552 36.9337 10.24C36.8111 10.0572 36.6933 9.84777 36.6722 9.77438C36.5977 9.515 35.2819 8.07567 34.846 7.7764C34.6733 7.6583 34.427 7.47195 34.2979 7.36221C33.1732 6.40734 30.5356 5.69946 28.7018 5.85988ZM46.9455 5.95125C46.4053 6.00153 45.5037 6.22818 45.2167 6.38539C45.1192 6.43887 44.9952 6.48276 44.9406 6.48276C44.1503 6.48276 42.1529 8.48348 41.3968 10.0329C40.4749 11.9211 40.4489 12.1704 40.4707 18.8749L40.4884 24.2511L40.6641 24.4114C40.8905 24.6178 43.3995 24.6648 43.6827 24.4681C43.9355 24.2921 43.9355 24.2917 43.9678 18.4536L43.9991 12.7674L44.1913 12.2646C44.2974 11.9881 44.5419 11.5392 44.7348 11.2671C45.3725 10.3673 45.3178 10.4168 46.2248 9.91643C47.1904 9.3833 48.2286 9.42839 49.1698 10.0441C49.4184 10.2069 49.6418 10.3397 49.6659 10.3397C49.8972 10.3397 50.8169 11.7974 51.0246 12.4925C51.2826 13.3572 51.3018 13.8221 51.3022 19.189C51.3029 24.2207 51.3044 24.2826 51.4305 24.4263C51.6393 24.664 54.2182 24.6513 54.4811 24.4114L54.6568 24.2511L54.691 18.6754L54.7256 13.0998L54.919 12.4681C56.1189 8.55092 60.5065 8.62234 61.8181 12.5807L61.9904 13.0998L62.0223 18.7261C62.0491 23.3592 62.0697 24.3715 62.1409 24.4621C62.2981 24.6632 65.0899 24.6238 65.2723 24.4179L65.4089 24.2642V18.6771C65.4089 12.38 65.4164 12.5069 64.9406 11.0408C64.5306 9.77714 63.5668 8.23409 62.9014 7.77521C62.7807 7.69221 62.5595 7.50626 62.4098 7.36262C61.2264 6.22459 58.5692 5.61368 56.8622 6.08732C55.3869 6.49672 54.4326 7.07053 53.4211 8.15588L52.9378 8.67462L52.6688 8.33983C51.3451 6.69105 49.0922 5.75055 46.9455 5.95125ZM68.0589 5.9309C67.635 6.01749 67.6658 5.28967 67.6658 15.2985V24.2962L67.831 24.4342C67.9968 24.5727 70.4637 24.6537 70.7661 24.5304C71.0596 24.4111 71.0513 24.69 71.0513 15.2613C71.0513 5.58854 71.0705 6.09729 70.6992 5.94766C70.5472 5.88621 68.3444 5.87225 68.0589 5.9309ZM80.6117 6.0135C79.8444 6.15875 78.7384 6.52585 78.1953 6.81635C77.7748 7.041 77.124 7.46277 77.0699 7.54577C77.0526 7.57171 76.9114 7.67664 76.7561 7.778C76.6011 7.87975 76.2092 8.25085 75.8857 8.60279C73.7551 10.9191 72.9577 13.6724 73.4372 17.057C73.7709 19.4104 75.675 22.2296 77.6965 23.3632C78.5358 23.8337 78.7155 23.9198 79.3136 24.1381C82.4275 25.2746 86.0297 24.3631 88.4168 21.8357C90.4056 19.7304 91.4076 16.134 90.7775 13.366C90.4226 11.8034 90.1967 11.1896 89.6778 10.3733C89.5156 10.1171 89.3084 9.77313 89.2176 9.6083C88.9849 9.185 87.8886 8.05453 87.2746 7.60403C85.3231 6.17312 82.868 5.58695 80.6117 6.0135ZM105.584 5.95524C104.869 6.13441 104.173 6.80597 103.909 7.5713L103.745 8.04535V10.3733C103.745 12.6365 103.75 12.7128 103.891 13.1329C104.619 15.3048 107.591 15.4952 108.564 13.4322C108.848 12.8296 108.864 12.641 108.843 10.2057L108.824 7.91247L108.63 7.48032C108.083 6.2601 106.843 5.63962 105.584 5.95524ZM106.698 8.77038L106.912 8.99661V10.7176C106.912 12.2304 106.899 12.4582 106.805 12.603C106.537 13.0153 106.197 13.0536 105.871 12.7076L105.658 12.4813V10.7388V8.99661L105.871 8.77038C106.025 8.60758 106.14 8.54414 106.284 8.54414C106.43 8.54414 106.545 8.60758 106.698 8.77038ZM10.8207 9.67063C14.6414 10.7124 16.2024 15.3711 13.8421 18.6863C13.3959 19.3127 13.2311 19.4754 12.436 20.0764C10.402 21.613 7.23328 21.0879 5.45141 18.9188C2.09645 14.8352 5.8776 8.32227 10.8207 9.67063ZM30.8335 9.67455C32.4551 10.2049 33.7419 11.3745 34.3434 12.8644L34.559 13.3991H29.4545H24.3504L24.4354 13.1433C24.6122 12.6114 25.0331 11.8613 25.3171 11.5704C25.3886 11.497 25.5093 11.3513 25.5853 11.246C26.557 9.89839 29.1461 9.12313 30.8335 9.67455ZM83.4954 9.70973C84.5685 10.0396 85.1663 10.4124 85.9227 11.2236C89.7432 15.3228 86.1571 22.0863 80.8499 20.7899C79.9655 20.574 79.6454 20.4004 78.6279 19.5848C77.1089 18.367 76.4074 15.9289 76.9445 13.7363C77.6833 10.7229 80.7197 8.85657 83.4954 9.70973ZM112.717 14.1572C112.834 14.2818 112.93 14.4481 112.93 14.5276C112.93 14.9026 112.261 16.6891 112.058 16.8575C112.036 16.8754 111.842 17.13 111.625 17.4225C111.409 17.7154 111.138 18.0294 111.025 18.1208C110.909 18.2126 110.608 18.4555 110.353 18.6614C109.656 19.2249 109.014 19.527 107.758 19.8837C106.22 20.3206 103.773 19.8546 102.436 18.8702C101.515 18.1926 100.442 17.0143 100.299 16.5246C100.271 16.4333 100.157 16.1623 100.044 15.9221C99.5012 14.7726 99.5887 14.164 100.298 14.164C100.654 14.164 100.793 14.3077 100.962 14.8531C101.037 15.0957 101.193 15.468 101.309 15.6804C101.425 15.8926 101.521 16.0902 101.521 16.1193C101.521 16.3766 102.805 17.6571 103.351 17.9429C106.66 19.6786 110.485 18.2824 111.519 14.9621C111.843 13.9195 112.242 13.6525 112.717 14.1572Z" fill="white"/>
<path fill-rule="evenodd" clip-rule="evenodd" d="M15.0916 0.171745C14.9777 0.305419 14.9712 0.48059 14.9551 4.02874C14.9445 6.28245 14.9144 7.74608 14.8791 7.74608C14.8467 7.74608 14.7696 7.68981 14.708 7.62118C14.5797 7.47754 13.9119 7.0378 13.4282 6.77763C12.1451 6.08812 9.95024 5.72621 8.40276 5.94926C7.28218 6.11046 5.32916 6.84787 4.87852 7.27922C4.80968 7.34546 4.55577 7.5342 4.31428 7.69899C3.89411 7.98549 2.46471 9.45429 2.46471 9.5992C2.46471 9.6367 2.30521 9.91438 2.10999 10.2164C1.5277 11.1187 1.2689 11.7998 0.913804 13.366C0.635823 14.5922 0.75657 16.5981 1.2121 18.3203C1.38551 18.9767 2.21193 20.6151 2.4143 20.7037C2.44214 20.7156 2.46471 20.7568 2.46471 20.7946C2.46471 21.0281 3.59807 22.2396 4.40832 22.872C6.5987 24.5822 9.94013 25.0926 12.4713 24.1034C13.1499 23.8385 14.375 23.1748 14.6816 22.9063L14.9096 22.7064L14.9408 23.4678C14.9693 24.1577 14.9863 24.2451 15.124 24.4003L15.2759 24.5719H16.6688C17.9467 24.5719 18.0738 24.5615 18.2096 24.4446L18.3574 24.3177V13.0416C18.3574 3.10539 18.3466 1.75429 18.2634 1.66929C18.2119 1.61622 17.9719 1.4622 17.7307 1.32653C17.4892 1.19086 17.2353 1.02766 17.1665 0.963411C16.3623 0.216435 15.3748 -0.160245 15.0916 0.171745ZM67.7693 0.153389C67.6809 0.257137 67.6658 0.451064 67.6658 1.46858C67.6658 2.82887 67.6613 2.81411 68.1812 3.16485C68.3633 3.28775 68.5656 3.43978 68.6307 3.50282C68.6962 3.56587 68.908 3.70354 69.1009 3.80848C69.2942 3.91342 69.6449 4.13927 69.8796 4.31005C70.4412 4.71826 70.774 4.73023 70.9595 4.34956C71.0971 4.06704 71.0938 0.511716 70.9553 0.228007L70.8598 0.0316858H69.3665C67.9995 0.0316858 67.8645 0.0420607 67.7693 0.153389ZM104.812 0.0767755C103.921 0.196484 102.416 0.676514 101.659 1.08193C101.462 1.18767 101.223 1.29461 101.129 1.31895C100.927 1.37202 99.7296 2.21755 99.1131 2.74347C98.3047 3.43299 96.9944 4.96805 96.6929 5.57936C96.4823 6.00552 96.1775 6.5502 96.1325 6.57972C96.0535 6.6316 95.4591 8.15189 95.313 8.67741C94.7483 10.7033 94.7492 10.6937 94.7492 16.8794V22.2383L94.9003 22.6804C94.9835 22.9238 95.1202 23.202 95.2026 23.2986C95.285 23.3955 95.3988 23.5523 95.454 23.6477C95.5983 23.8943 96.2072 24.3046 96.6445 24.4489C97.1566 24.6178 106.498 24.6365 107.602 24.4705C109.369 24.2052 111.554 23.3046 112.773 22.3385C112.98 22.1745 113.207 22.0149 113.277 21.9838C113.346 21.9522 113.666 21.6613 113.989 21.3373C114.312 21.0129 114.601 20.7376 114.631 20.7253C114.662 20.7129 114.905 20.4148 115.172 20.0629C115.44 19.7109 115.717 19.3534 115.792 19.2688C115.865 19.1842 116.03 18.8989 116.158 18.6347C116.286 18.3702 116.428 18.1092 116.475 18.0541C116.521 17.9987 116.696 17.6392 116.866 17.2549C118.134 14.3743 118.178 10.4396 116.975 7.51265C116.78 7.0374 116.582 6.60406 116.536 6.549C116.49 6.49433 116.351 6.23496 116.228 5.9732C115.763 4.9888 114.184 3.13293 113.212 2.43183C113.04 2.30694 112.758 2.09466 112.585 1.95899C110.817 0.570374 107.362 -0.265989 104.812 0.0767755ZM107.194 4.65721C108.56 5.03469 109.655 6.20623 110.014 7.67585C110.18 8.3542 110.151 12.603 109.977 13.2255C109.836 13.7295 109.67 14.1129 109.495 14.342C108.693 15.3946 108.176 15.8008 107.269 16.0909C105.429 16.6791 103.244 15.4278 102.661 13.4521C102.474 12.8201 102.371 8.75362 102.52 7.93921C102.961 5.53946 105.058 4.06705 107.194 4.65721ZM28.7018 5.85988C27.3559 5.97799 25.2234 6.78004 24.4896 7.44402C24.3583 7.56293 24.1537 7.71336 24.0348 7.778C23.6154 8.00704 22.3567 9.46991 22.0024 10.1403C20.9609 12.1103 20.646 13.2874 20.646 15.2075C20.646 23.2695 29.646 27.5733 35.3139 22.222C37.2481 20.3956 37.3257 19.9903 35.8078 19.6267C35.3824 19.525 34.773 19.3686 34.4544 19.28C33.5922 19.0397 33.4437 19.0553 33.048 19.4284C31.177 21.1913 28.5314 21.404 26.5084 19.9543C25.5233 19.2484 24.6939 18.1771 24.44 17.2829L24.3572 16.9904H31.1152H37.8733L38.0757 16.7896L38.2784 16.5889L38.243 15.2434C38.2227 14.4581 38.1705 13.7179 38.1174 13.4657C38.0678 13.2279 37.9806 12.8089 37.9233 12.5344C37.8083 11.9818 37.279 10.7552 36.9337 10.24C36.8111 10.0572 36.6933 9.84777 36.6722 9.77438C36.5977 9.515 35.2819 8.07567 34.846 7.7764C34.6733 7.6583 34.427 7.47195 34.2979 7.36221C33.1732 6.40734 30.5356 5.69946 28.7018 5.85988ZM46.9455 5.95125C46.4053 6.00153 45.5037 6.22818 45.2167 6.38539C45.1192 6.43887 44.9952 6.48276 44.9406 6.48276C44.1503 6.48276 42.1529 8.48348 41.3968 10.0329C40.4749 11.9211 40.4489 12.1704 40.4707 18.8749L40.4884 24.2511L40.6641 24.4114C40.8905 24.6178 43.3995 24.6648 43.6827 24.4681C43.9355 24.2921 43.9355 24.2917 43.9678 18.4536L43.9991 12.7674L44.1913 12.2646C44.2974 11.9881 44.5419 11.5392 44.7348 11.2671C45.3725 10.3673 45.3178 10.4168 46.2248 9.91643C47.1904 9.3833 48.2286 9.42839 49.1698 10.0441C49.4184 10.2069 49.6418 10.3397 49.6659 10.3397C49.8972 10.3397 50.8169 11.7974 51.0246 12.4925C51.2826 13.3572 51.3018 13.8221 51.3022 19.189C51.3029 24.2207 51.3044 24.2826 51.4305 24.4263C51.6393 24.664 54.2182 24.6513 54.4811 24.4114L54.6568 24.2511L54.691 18.6754L54.7256 13.0998L54.919 12.4681C56.1189 8.55092 60.5065 8.62234 61.8181 12.5807L61.9904 13.0998L62.0223 18.7261C62.0491 23.3592 62.0697 24.3715 62.1409 24.4621C62.2981 24.6632 65.0899 24.6238 65.2723 24.4179L65.4089 24.2642V18.6771C65.4089 12.38 65.4164 12.5069 64.9406 11.0408C64.5306 9.77714 63.5668 8.23409 62.9014 7.77521C62.7807 7.69221 62.5595 7.50626 62.4098 7.36262C61.2264 6.22459 58.5692 5.61368 56.8622 6.08732C55.3869 6.49672 54.4326 7.07053 53.4211 8.15588L52.9378 8.67462L52.6688 8.33983C51.3451 6.69105 49.0922 5.75055 46.9455 5.95125ZM68.0589 5.9309C67.635 6.01749 67.6658 5.28967 67.6658 15.2985V24.2962L67.831 24.4342C67.9968 24.5727 70.4637 24.6537 70.7661 24.5304C71.0596 24.4111 71.0513 24.69 71.0513 15.2613C71.0513 5.58854 71.0705 6.09729 70.6992 5.94766C70.5472 5.88621 68.3444 5.87225 68.0589 5.9309ZM80.6117 6.0135C79.8444 6.15875 78.7384 6.52585 78.1953 6.81635C77.7748 7.041 77.124 7.46277 77.0699 7.54577C77.0526 7.57171 76.9114 7.67664 76.7561 7.778C76.6011 7.87975 76.2092 8.25085 75.8857 8.60279C73.7551 10.9191 72.9577 13.6724 73.4372 17.057C73.7709 19.4104 75.675 22.2296 77.6965 23.3632C78.5358 23.8337 78.7155 23.9198 79.3136 24.1381C82.4275 25.2746 86.0297 24.3631 88.4168 21.8357C90.4056 19.7304 91.4076 16.134 90.7775 13.366C90.4226 11.8034 90.1967 11.1896 89.6778 10.3733C89.5156 10.1171 89.3084 9.77313 89.2176 9.6083C88.9849 9.185 87.8886 8.05453 87.2746 7.60403C85.3231 6.17312 82.868 5.58695 80.6117 6.0135ZM105.584 5.95524C104.869 6.13441 104.173 6.80597 103.909 7.5713L103.745 8.04535V10.3733C103.745 12.6365 103.75 12.7128 103.891 13.1329C104.619 15.3048 107.591 15.4952 108.564 13.4322C108.848 12.8296 108.864 12.641 108.843 10.2057L108.824 7.91247L108.63 7.48032C108.083 6.2601 106.843 5.63962 105.584 5.95524ZM106.698 8.77038L106.912 8.99661V10.7176C106.912 12.2304 106.899 12.4582 106.805 12.603C106.537 13.0153 106.197 13.0536 105.871 12.7076L105.658 12.4813V10.7388V8.99661L105.871 8.77038C106.025 8.60758 106.14 8.54414 106.284 8.54414C106.43 8.54414 106.545 8.60758 106.698 8.77038ZM10.8207 9.67063C14.6414 10.7124 16.2024 15.3711 13.8421 18.6863C13.3959 19.3127 13.2311 19.4754 12.436 20.0764C10.402 21.613 7.23328 21.0879 5.45141 18.9188C2.09645 14.8352 5.8776 8.32227 10.8207 9.67063ZM30.8335 9.67455C32.4551 10.2049 33.7419 11.3745 34.3434 12.8644L34.559 13.3991H29.4545H24.3504L24.4354 13.1433C24.6122 12.6114 25.0331 11.8613 25.3171 11.5704C25.3886 11.497 25.5093 11.3513 25.5853 11.246C26.557 9.89839 29.1461 9.12313 30.8335 9.67455ZM83.4954 9.70973C84.5685 10.0396 85.1663 10.4124 85.9227 11.2236C89.7432 15.3228 86.1571 22.0863 80.8499 20.7899C79.9655 20.574 79.6454 20.4004 78.6279 19.5848C77.1089 18.367 76.4074 15.9289 76.9445 13.7363C77.6833 10.7229 80.7197 8.85657 83.4954 9.70973ZM112.717 14.1572C112.834 14.2818 112.93 14.4481 112.93 14.5276C112.93 14.9026 112.261 16.6891 112.058 16.8575C112.036 16.8754 111.842 17.13 111.625 17.4225C111.409 17.7154 111.138 18.0294 111.025 18.1208C110.909 18.2126 110.608 18.4555 110.353 18.6614C109.656 19.2249 109.014 19.527 107.758 19.8837C106.22 20.3206 103.773 19.8546 102.436 18.8702C101.515 18.1926 100.442 17.0143 100.299 16.5246C100.271 16.4333 100.157 16.1623 100.044 15.9221C99.5012 14.7726 99.5887 14.164 100.298 14.164C100.654 14.164 100.793 14.3077 100.962 14.8531C101.037 15.0957 101.193 15.468 101.309 15.6804C101.425 15.8926 101.521 16.0902 101.521 16.1193C101.521 16.3766 102.805 17.6571 103.351 17.9429C106.66 19.6786 110.485 18.2824 111.519 14.9621C111.843 13.9195 112.242 13.6525 112.717 14.1572Z" fill="white"/>
<path fill-rule="evenodd" clip-rule="evenodd" d="M15.0916 0.171745C14.9777 0.305419 14.9712 0.48059 14.9551 4.02874C14.9445 6.28245 14.9144 7.74608 14.8791 7.74608C14.8467 7.74608 14.7696 7.68981 14.708 7.62118C14.5797 7.47754 13.9119 7.0378 13.4282 6.77763C12.1451 6.08812 9.95024 5.72621 8.40276 5.94926C7.28218 6.11046 5.32916 6.84787 4.87852 7.27922C4.80968 7.34546 4.55577 7.5342 4.31428 7.69899C3.89411 7.98549 2.46471 9.45429 2.46471 9.5992C2.46471 9.6367 2.30521 9.91438 2.10999 10.2164C1.5277 11.1187 1.2689 11.7998 0.913804 13.366C0.635823 14.5922 0.75657 16.5981 1.2121 18.3203C1.38551 18.9767 2.21193 20.6151 2.4143 20.7037C2.44214 20.7156 2.46471 20.7568 2.46471 20.7946C2.46471 21.0281 3.59807 22.2396 4.40832 22.872C6.5987 24.5822 9.94013 25.0926 12.4713 24.1034C13.1499 23.8385 14.375 23.1748 14.6816 22.9063L14.9096 22.7064L14.9408 23.4678C14.9693 24.1577 14.9863 24.2451 15.124 24.4003L15.2759 24.5719H16.6688C17.9467 24.5719 18.0738 24.5615 18.2096 24.4446L18.3574 24.3177V13.0416C18.3574 3.10539 18.3466 1.75429 18.2634 1.66929C18.2119 1.61622 17.9719 1.4622 17.7307 1.32653C17.4892 1.19086 17.2353 1.02766 17.1665 0.963411C16.3623 0.216435 15.3748 -0.160245 15.0916 0.171745ZM67.7693 0.153389C67.6809 0.257137 67.6658 0.451064 67.6658 1.46858C67.6658 2.82887 67.6613 2.81411 68.1812 3.16485C68.3633 3.28775 68.5656 3.43978 68.6307 3.50282C68.6962 3.56587 68.908 3.70354 69.1009 3.80848C69.2942 3.91342 69.6449 4.13927 69.8796 4.31005C70.4412 4.71826 70.774 4.73023 70.9595 4.34956C71.0971 4.06704 71.0938 0.511716 70.9553 0.228007L70.8598 0.0316858H69.3665C67.9995 0.0316858 67.8645 0.0420607 67.7693 0.153389ZM104.812 0.0767755C103.921 0.196484 102.416 0.676514 101.659 1.08193C101.462 1.18767 101.223 1.29461 101.129 1.31895C100.927 1.37202 99.7296 2.21755 99.1131 2.74347C98.3047 3.43299 96.9944 4.96805 96.6929 5.57936C96.4823 6.00552 96.1775 6.5502 96.1325 6.57972C96.0535 6.6316 95.4591 8.15189 95.313 8.67741C94.7483 10.7033 94.7492 10.6937 94.7492 16.8794V22.2383L94.9003 22.6804C94.9835 22.9238 95.1202 23.202 95.2026 23.2986C95.285 23.3955 95.3988 23.5523 95.454 23.6477C95.5983 23.8943 96.2072 24.3046 96.6445 24.4489C97.1566 24.6178 106.498 24.6365 107.602 24.4705C109.369 24.2052 111.554 23.3046 112.773 22.3385C112.98 22.1745 113.207 22.0149 113.277 21.9838C113.346 21.9522 113.666 21.6613 113.989 21.3373C114.312 21.0129 114.601 20.7376 114.631 20.7253C114.662 20.7129 114.905 20.4148 115.172 20.0629C115.44 19.7109 115.717 19.3534 115.792 19.2688C115.865 19.1842 116.03 18.8989 116.158 18.6347C116.286 18.3702 116.428 18.1092 116.475 18.0541C116.521 17.9987 116.696 17.6392 116.866 17.2549C118.134 14.3743 118.178 10.4396 116.975 7.51265C116.78 7.0374 116.582 6.60406 116.536 6.549C116.49 6.49433 116.351 6.23496 116.228 5.9732C115.763 4.9888 114.184 3.13293 113.212 2.43183C113.04 2.30694 112.758 2.09466 112.585 1.95899C110.817 0.570374 107.362 -0.265989 104.812 0.0767755ZM107.194 4.65721C108.56 5.03469 109.655 6.20623 110.014 7.67585C110.18 8.3542 110.151 12.603 109.977 13.2255C109.836 13.7295 109.67 14.1129 109.495 14.342C108.693 15.3946 108.176 15.8008 107.269 16.0909C105.429 16.6791 103.244 15.4278 102.661 13.4521C102.474 12.8201 102.371 8.75362 102.52 7.93921C102.961 5.53946 105.058 4.06705 107.194 4.65721ZM28.7018 5.85988C27.3559 5.97799 25.2234 6.78004 24.4896 7.44402C24.3583 7.56293 24.1537 7.71336 24.0348 7.778C23.6154 8.00704 22.3567 9.46991 22.0024 10.1403C20.9609 12.1103 20.646 13.2874 20.646 15.2075C20.646 23.2695 29.646 27.5733 35.3139 22.222C37.2481 20.3956 37.3257 19.9903 35.8078 19.6267C35.3824 19.525 34.773 19.3686 34.4544 19.28C33.5922 19.0397 33.4437 19.0553 33.048 19.4284C31.177 21.1913 28.5314 21.404 26.5084 19.9543C25.5233 19.2484 24.6939 18.1771 24.44 17.2829L24.3572 16.9904H31.1152H37.8733L38.0757 16.7896L38.2784 16.5889L38.243 15.2434C38.2227 14.4581 38.1705 13.7179 38.1174 13.4657C38.0678 13.2279 37.9806 12.8089 37.9233 12.5344C37.8083 11.9818 37.279 10.7552 36.9337 10.24C36.8111 10.0572 36.6933 9.84777 36.6722 9.77438C36.5977 9.515 35.2819 8.07567 34.846 7.7764C34.6733 7.6583 34.427 7.47195 34.2979 7.36221C33.1732 6.40734 30.5356 5.69946 28.7018 5.85988ZM46.9455 5.95125C46.4053 6.00153 45.5037 6.22818 45.2167 6.38539C45.1192 6.43887 44.9952 6.48276 44.9406 6.48276C44.1503 6.48276 42.1529 8.48348 41.3968 10.0329C40.4749 11.9211 40.4489 12.1704 40.4707 18.8749L40.4884 24.2511L40.6641 24.4114C40.8905 24.6178 43.3995 24.6648 43.6827 24.4681C43.9355 24.2921 43.9355 24.2917 43.9678 18.4536L43.9991 12.7674L44.1913 12.2646C44.2974 11.9881 44.5419 11.5392 44.7348 11.2671C45.3725 10.3673 45.3178 10.4168 46.2248 9.91643C47.1904 9.3833 48.2286 9.42839 49.1698 10.0441C49.4184 10.2069 49.6418 10.3397 49.6659 10.3397C49.8972 10.3397 50.8169 11.7974 51.0246 12.4925C51.2826 13.3572 51.3018 13.8221 51.3022 19.189C51.3029 24.2207 51.3044 24.2826 51.4305 24.4263C51.6393 24.664 54.2182 24.6513 54.4811 24.4114L54.6568 24.2511L54.691 18.6754L54.7256 13.0998L54.919 12.4681C56.1189 8.55092 60.5065 8.62234 61.8181 12.5807L61.9904 13.0998L62.0223 18.7261C62.0491 23.3592 62.0697 24.3715 62.1409 24.4621C62.2981 24.6632 65.0899 24.6238 65.2723 24.4179L65.4089 24.2642V18.6771C65.4089 12.38 65.4164 12.5069 64.9406 11.0408C64.5306 9.77714 63.5668 8.23409 62.9014 7.77521C62.7807 7.69221 62.5595 7.50626 62.4098 7.36262C61.2264 6.22459 58.5692 5.61368 56.8622 6.08732C55.3869 6.49672 54.4326 7.07053 53.4211 8.15588L52.9378 8.67462L52.6688 8.33983C51.3451 6.69105 49.0922 5.75055 46.9455 5.95125ZM68.0589 5.9309C67.635 6.01749 67.6658 5.28967 67.6658 15.2985V24.2962L67.831 24.4342C67.9968 24.5727 70.4637 24.6537 70.7661 24.5304C71.0596 24.4111 71.0513 24.69 71.0513 15.2613C71.0513 5.58854 71.0705 6.09729 70.6992 5.94766C70.5472 5.88621 68.3444 5.87225 68.0589 5.9309ZM80.6117 6.0135C79.8444 6.15875 78.7384 6.52585 78.1953 6.81635C77.7748 7.041 77.124 7.46277 77.0699 7.54577C77.0526 7.57171 76.9114 7.67664 76.7561 7.778C76.6011 7.87975 76.2092 8.25085 75.8857 8.60279C73.7551 10.9191 72.9577 13.6724 73.4372 17.057C73.7709 19.4104 75.675 22.2296 77.6965 23.3632C78.5358 23.8337 78.7155 23.9198 79.3136 24.1381C82.4275 25.2746 86.0297 24.3631 88.4168 21.8357C90.4056 19.7304 91.4076 16.134 90.7775 13.366C90.4226 11.8034 90.1967 11.1896 89.6778 10.3733C89.5156 10.1171 89.3084 9.77313 89.2176 9.6083C88.9849 9.185 87.8886 8.05453 87.2746 7.60403C85.3231 6.17312 82.868 5.58695 80.6117 6.0135ZM105.584 5.95524C104.869 6.13441 104.173 6.80597 103.909 7.5713L103.745 8.04535V10.3733C103.745 12.6365 103.75 12.7128 103.891 13.1329C104.619 15.3048 107.591 15.4952 108.564 13.4322C108.848 12.8296 108.864 12.641 108.843 10.2057L108.824 7.91247L108.63 7.48032C108.083 6.2601 106.843 5.63962 105.584 5.95524ZM106.698 8.77038L106.912 8.99661V10.7176C106.912 12.2304 106.899 12.4582 106.805 12.603C106.537 13.0153 106.197 13.0536 105.871 12.7076L105.658 12.4813V10.7388V8.99661L105.871 8.77038C106.025 8.60758 106.14 8.54414 106.284 8.54414C106.43 8.54414 106.545 8.60758 106.698 8.77038ZM10.8207 9.67063C14.6414 10.7124 16.2024 15.3711 13.8421 18.6863C13.3959 19.3127 13.2311 19.4754 12.436 20.0764C10.402 21.613 7.23328 21.0879 5.45141 18.9188C2.09645 14.8352 5.8776 8.32227 10.8207 9.67063ZM30.8335 9.67455C32.4551 10.2049 33.7419 11.3745 34.3434 12.8644L34.559 13.3991H29.4545H24.3504L24.4354 13.1433C24.6122 12.6114 25.0331 11.8613 25.3171 11.5704C25.3886 11.497 25.5093 11.3513 25.5853 11.246C26.557 9.89839 29.1461 9.12313 30.8335 9.67455ZM83.4954 9.70973C84.5685 10.0396 85.1663 10.4124 85.9227 11.2236C89.7432 15.3228 86.1571 22.0863 80.8499 20.7899C79.9655 20.574 79.6454 20.4004 78.6279 19.5848C77.1089 18.367 76.4074 15.9289 76.9445 13.7363C77.6833 10.7229 80.7197 8.85657 83.4954 9.70973ZM112.717 14.1572C112.834 14.2818 112.93 14.4481 112.93 14.5276C112.93 14.9026 112.261 16.6891 112.058 16.8575C112.036 16.8754 111.842 17.13 111.625 17.4225C111.409 17.7154 111.138 18.0294 111.025 18.1208C110.909 18.2126 110.608 18.4555 110.353 18.6614C109.656 19.2249 109.014 19.527 107.758 19.8837C106.22 20.3206 103.773 19.8546 102.436 18.8702C101.515 18.1926 100.442 17.0143 100.299 16.5246C100.271 16.4333 100.157 16.1623 100.044 15.9221C99.5012 14.7726 99.5887 14.164 100.298 14.164C100.654 14.164 100.793 14.3077 100.962 14.8531C101.037 15.0957 101.193 15.468 101.309 15.6804C101.425 15.8926 101.521 16.0902 101.521 16.1193C101.521 16.3766 102.805 17.6571 103.351 17.9429C106.66 19.6786 110.485 18.2824 111.519 14.9621C111.843 13.9195 112.242 13.6525 112.717 14.1572Z" fill="white"/>
</g>
<defs>
<clipPath id="clip0_2_264">
<rect width="117.188" height="25" fill="white" transform="translate(0.765625)"/>
</clipPath>
</defs>
</svg>
