<svg width="118" height="25" viewBox="0 0 118 25" fill="none" xmlns="http://www.w3.org/2000/svg">
<g clip-path="url(#clip0_2_231)">
<path d="M8.92543 13.6456L15.8714 24.614C15.9535 24.7395 16.0664 24.8414 16.1992 24.9097C16.332 24.9781 16.4801 25.0106 16.629 25.004H19.2023C19.3184 25.0054 19.4336 24.9834 19.5412 24.9393C19.6488 24.8951 19.7465 24.8299 19.8287 24.7472C19.9109 24.6645 19.9759 24.5661 20.0199 24.4578C20.0639 24.3495 20.086 24.2334 20.0849 24.1164V0.887594C20.0832 0.702338 20.0246 0.522176 19.9172 0.371811C19.8099 0.221445 19.6589 0.108241 19.4853 0.0477242C19.3115 -0.0127928 19.1235 -0.0176594 18.9469 0.033792C18.7704 0.0852431 18.6139 0.190493 18.499 0.335106L8.92543 12.5792C8.8217 12.7373 8.76639 12.9227 8.76639 13.1124C8.76639 13.3019 8.8217 13.4874 8.92543 13.6456Z" fill="white"/>
<path d="M1.11699 25.0002H5.69928C5.81539 25.0016 5.9306 24.9795 6.03816 24.9355C6.14571 24.8913 6.24346 24.826 6.32566 24.7434C6.40786 24.6607 6.47287 24.5623 6.51683 24.454C6.56086 24.3457 6.58299 24.2297 6.58188 24.1126V18.2221C6.57909 18.0371 6.51969 17.8575 6.41194 17.7077C6.30417 17.5579 6.15321 17.4452 5.97963 17.3851C5.80604 17.3249 5.61827 17.3201 5.4419 17.3714C5.26553 17.4227 5.10913 17.5275 4.994 17.6717L0.411716 23.5622C0.313906 23.6954 0.254432 23.8533 0.239831 24.0184C0.22523 24.1835 0.256065 24.3495 0.328949 24.4982C0.401833 24.6468 0.513946 24.7722 0.65297 24.8608C0.791993 24.9494 0.952548 24.9977 1.11699 25.0002Z" fill="white"/>
<path d="M82.9613 11.7564C82.9092 11.6917 82.8516 11.6313 82.7902 11.5756L82.6953 11.4944L82.6469 11.4517C82.4287 11.2664 82.1912 11.1044 81.9395 10.9682C81.6667 10.8034 81.3777 10.6672 81.0776 10.562C80.7701 10.4513 80.4539 10.3671 80.1321 10.3102C79.3018 10.1613 78.4487 10.2051 77.6376 10.4381C77.1528 10.5763 76.6871 10.7749 76.2512 11.0292C75.8228 11.2822 75.4278 11.5894 75.0763 11.9432C74.7259 12.3002 74.4172 12.6961 74.1555 13.1234C73.8895 13.5537 73.6861 14.0202 73.551 14.5086C73.2651 15.5189 73.2651 16.5898 73.551 17.6001C73.6892 18.0867 73.8926 18.5521 74.1555 18.9834C74.4172 19.4106 74.7259 19.8065 75.0763 20.1635C75.4297 20.5178 75.8253 20.8256 76.255 21.0796C76.6921 21.3267 77.1552 21.5242 77.6358 21.6686C78.4673 21.9188 79.3465 21.9627 80.199 21.7966C80.5264 21.742 80.847 21.65 81.1539 21.5224C81.4484 21.4012 81.733 21.258 82.0064 21.0938C82.2774 20.9308 82.5391 20.7511 82.7883 20.5555C82.8596 20.4925 82.9272 20.4247 82.9898 20.3524L83.0221 20.3159C83.0816 20.2441 83.1269 20.1612 83.1548 20.0721L83.1672 19.999C83.1734 19.882 83.1461 19.7656 83.0884 19.6638L83.0599 19.6191C83.0382 19.5832 83.0134 19.5492 82.9855 19.5176L82.9111 19.416C82.7617 19.2129 82.6209 19.0098 82.4696 18.8229C82.4057 18.7487 82.3258 18.6904 82.2359 18.6523C82.1466 18.6218 82.0492 18.6218 81.9599 18.6523C81.8316 18.7099 81.715 18.7904 81.6152 18.8899L81.4825 19.0037C81.3511 19.1134 81.281 19.1845 81.0975 19.3144C80.9325 19.4412 80.754 19.5496 80.5655 19.6374C80.3621 19.7419 80.1463 19.8184 79.9225 19.8649C79.1871 20.0254 78.4207 19.9442 77.7344 19.6334C77.2929 19.4331 76.8924 19.1529 76.5513 18.8067C76.2016 18.4527 75.922 18.035 75.7273 17.5757C75.5202 17.1097 75.4129 16.6047 75.4129 16.094C75.4129 15.5832 75.5202 15.0783 75.7273 14.6122C75.9238 14.1506 76.2022 13.7293 76.5495 13.3691C76.8948 13.0207 77.296 12.7337 77.7362 12.5201C78.3736 12.2152 79.0929 12.1296 79.7836 12.2764C80.0149 12.3297 80.2412 12.4017 80.4607 12.4917C80.6703 12.5812 80.8724 12.6872 81.0652 12.8086C81.4682 13.0482 81.9234 13.7347 82.3648 13.1904L83.0035 12.3251C83.0339 12.2837 83.0549 12.2366 83.0661 12.1867C83.0779 12.1368 83.0791 12.0851 83.0704 12.0346C83.0593 11.9338 83.0214 11.8377 82.9613 11.7564Z" fill="white"/>
<path d="M43.6674 20.9642L36.6791 4.93594C36.6322 4.81692 36.5512 4.7147 36.4464 4.64234C36.3415 4.56997 36.2177 4.53075 36.0907 4.5297H34.9703C34.845 4.52919 34.7224 4.56618 34.6181 4.63597C34.5136 4.70576 34.4322 4.80521 34.3839 4.92172L27.3815 20.9458C27.3334 21.0438 27.3118 21.153 27.3188 21.2621C27.3259 21.3712 27.3614 21.4765 27.4218 21.5674C27.4789 21.6602 27.5588 21.7367 27.6538 21.7893C27.7487 21.842 27.8555 21.8691 27.9639 21.868H28.9976C29.1236 21.8706 29.2473 21.8345 29.3524 21.7645C29.4575 21.6944 29.539 21.5938 29.586 21.476L31.2666 17.5212H39.7601L41.4306 21.476C41.4776 21.5953 41.559 21.6978 41.6642 21.7701C41.7694 21.8425 41.8937 21.8816 42.021 21.8822H43.0286C43.1331 21.8889 43.2375 21.8692 43.3326 21.8248C43.4276 21.7805 43.5101 21.713 43.5727 21.6283C43.6463 21.5365 43.694 21.4263 43.7106 21.3093C43.7273 21.1925 43.7124 21.0732 43.6674 20.9642ZM32.1613 15.4799L32.1895 15.4169L35.5567 7.51759L38.934 15.4799H32.1613Z" fill="white"/>
<path d="M107.652 14.2651C107.478 13.6449 107.206 13.0571 106.846 12.5244C106.58 12.1659 106.275 11.8394 105.935 11.5514C105.613 11.2626 105.248 11.0268 104.853 10.8527C104.467 10.6586 104.063 10.5074 103.644 10.4018C102.71 10.1699 101.732 10.1888 100.807 10.4566C100.332 10.5896 99.8779 10.7878 99.4569 11.0456C99.0402 11.3071 98.6558 11.6166 98.3104 11.9678C97.9713 12.3188 97.6829 12.7168 97.456 13.1499C97.2142 13.591 97.0294 14.0613 96.906 14.5494C96.6903 15.3268 96.6475 16.1424 96.7808 16.9381C96.8155 17.2491 96.875 17.5568 96.9581 17.8583C97.1317 18.4799 97.4039 19.0691 97.7642 19.6031C98.0295 19.9609 98.3352 20.2867 98.675 20.574C98.998 20.8633 99.3639 21.0997 99.7588 21.2748C100.144 21.4691 100.55 21.6197 100.968 21.7237C102.393 22.0748 103.898 21.8433 105.153 21.0798C105.57 20.8189 105.954 20.5101 106.3 20.1596C106.629 19.8226 106.907 19.4379 107.124 19.0181L107.142 18.9775C107.183 18.9223 107.207 18.8567 107.213 18.7881C107.219 18.7196 107.205 18.6508 107.174 18.5895C107.149 18.5429 107.112 18.5038 107.067 18.476C107.023 18.4482 106.971 18.4328 106.918 18.4311H105.248C105.178 18.4294 105.108 18.4441 105.044 18.4741C104.98 18.504 104.924 18.5484 104.879 18.6038C104.669 18.861 104.423 19.0867 104.15 19.2741C103.857 19.4625 103.539 19.6069 103.205 19.7026C102.463 19.9191 101.673 19.8964 100.946 19.6376C100.559 19.4958 100.194 19.2959 99.8661 19.0445C99.5468 18.7892 99.282 18.4723 99.0861 18.1122C98.9149 17.723 98.794 17.3134 98.7252 16.8934L98.7153 16.8407H98.7717L107.356 16.8224C107.708 16.8224 107.908 16.603 107.908 16.213C107.932 15.5539 107.845 14.8954 107.652 14.2651ZM105.825 15.0309L98.8784 15.0634L98.8963 15.0044C99.0123 14.6091 99.1853 14.2333 99.4104 13.8893C99.685 13.481 100.033 13.1288 100.438 12.8514C100.733 12.6608 101.054 12.515 101.391 12.4188C102.132 12.2023 102.922 12.225 103.65 12.4838C104.038 12.6256 104.402 12.8255 104.73 13.0768C105.051 13.3336 105.317 13.6527 105.512 14.0153C105.682 14.3142 105.804 14.6385 105.873 14.976L105.885 15.0309H105.825Z" fill="white"/>
<path d="M55.9996 20.1495C56.3455 19.7927 56.6491 19.3967 56.9044 18.9694C57.1571 18.5301 57.3541 18.0606 57.4908 17.5719C57.775 16.562 57.775 15.4924 57.4908 14.4824C57.3541 13.9937 57.1571 13.5242 56.9044 13.085C56.3986 12.2176 55.6814 11.4946 54.8208 10.9847C54.3899 10.7331 53.9305 10.5347 53.4526 10.3936C52.2198 10.0339 50.9013 10.1172 49.7227 10.6292C49.2266 10.8567 48.7636 11.1512 48.3464 11.5047L48.2718 11.5677V10.9421C48.2805 10.8646 48.2718 10.7861 48.2462 10.7124C48.2206 10.6387 48.1788 10.5719 48.124 10.5168C48.0691 10.4617 48.0026 10.4199 47.9295 10.3943C47.8564 10.3687 47.7784 10.3602 47.7015 10.3692H46.823C46.7453 10.3599 46.6666 10.3681 46.5924 10.3933C46.5183 10.4186 46.4507 10.4601 46.3945 10.5149C46.3383 10.5698 46.295 10.6366 46.2677 10.7106C46.2403 10.7844 46.2297 10.8635 46.2366 10.9421V24.4252C46.2341 24.4998 46.2467 24.5741 46.2733 24.6437C46.2999 24.7134 46.3402 24.7769 46.3918 24.8305C46.4433 24.8842 46.505 24.9269 46.5732 24.9559C46.6413 24.985 46.7147 25 46.7887 25H47.6854C47.8431 25.0047 47.9965 24.9472 48.1126 24.8395C48.1651 24.7862 48.2062 24.7227 48.2336 24.6529C48.2609 24.583 48.274 24.5084 48.2718 24.4333V20.4927L48.3464 20.5557C48.7577 20.9048 49.2155 21.194 49.7066 21.4149C50.8845 21.9268 52.2023 22.0101 53.4345 21.6505C53.9193 21.5127 54.3851 21.3141 54.8208 21.0595C55.2512 20.8089 55.6474 20.503 55.9996 20.1495ZM53.3337 19.5848C52.8875 19.7941 52.4012 19.9025 51.9091 19.9025C51.4169 19.9025 50.9306 19.7941 50.4844 19.5848C50.0363 19.3815 49.6339 19.0885 49.3015 18.7236C48.9602 18.3627 48.6871 17.9422 48.4955 17.4825C48.302 17.0171 48.2024 16.5175 48.2024 16.0129C48.2024 15.5084 48.302 15.0088 48.4955 14.5434C48.69 14.092 48.963 13.6793 49.3015 13.3247C49.6403 12.9714 50.0414 12.6848 50.4844 12.4797C50.9304 12.271 51.4163 12.1629 51.908 12.1629C52.3998 12.1629 52.8856 12.271 53.3317 12.4797C53.7681 12.687 54.1635 12.9726 54.4984 13.3226C54.8314 13.6784 55.0988 14.0911 55.2883 14.5414C55.4828 15.0061 55.583 15.5055 55.583 16.0099C55.583 16.5144 55.4828 17.0137 55.2883 17.4785C55.095 17.9357 54.8273 18.3572 54.4964 18.7256C54.1678 19.0853 53.7729 19.3771 53.3337 19.5848Z" fill="white"/>
<path d="M61.5351 10.3855H60.6566C60.578 10.3759 60.4982 10.3843 60.4233 10.41C60.3484 10.4358 60.2802 10.4783 60.2238 10.5343C60.1674 10.5904 60.1243 10.6585 60.0977 10.7337C60.0711 10.8088 60.0617 10.8891 60.0702 10.9684V24.4333C60.0684 24.5083 60.0816 24.5829 60.1089 24.6527C60.1362 24.7224 60.1772 24.786 60.2294 24.8395C60.281 24.8913 60.3423 24.9322 60.4097 24.9598C60.4773 24.9873 60.5495 25.001 60.6223 25H61.517C61.6748 25.0048 61.828 24.9471 61.9442 24.8395C61.9971 24.7865 62.0384 24.723 62.0658 24.6531C62.0932 24.5833 62.106 24.5084 62.1034 24.4333V20.4928L62.178 20.5557C62.5899 20.9052 63.0481 21.1944 63.5405 21.4149C64.7179 21.9269 66.0361 22.0103 67.2681 21.6505C67.753 21.5123 68.2187 21.3138 68.6545 21.0594C69.0842 20.8043 69.4804 20.4951 69.8332 20.1393C70.1786 19.7825 70.4812 19.3865 70.736 18.9592C70.9884 18.5199 71.1855 18.0504 71.3226 17.5618C71.6084 16.5521 71.6084 15.4819 71.3226 14.4723C71.1862 13.9834 70.989 13.5139 70.736 13.0748C70.2313 12.2071 69.5145 11.484 68.6545 10.9746C68.2224 10.7233 67.7623 10.5249 67.2843 10.3834C66.0516 10.0239 64.7328 10.1072 63.5541 10.6191C63.0581 10.8466 62.5949 11.1411 62.178 11.4945L62.0974 11.5778V10.9684C62.1075 10.8909 62.1001 10.812 62.0757 10.7378C62.0512 10.6635 62.0104 10.5958 61.9564 10.5397C61.9022 10.4836 61.8363 10.4406 61.7633 10.4139C61.6904 10.3871 61.6123 10.3774 61.5351 10.3855ZM62.3289 14.5576C62.5242 14.1064 62.797 13.6938 63.1349 13.3389C63.4723 12.9833 63.8722 12.6939 64.3136 12.4858C64.7601 12.2771 65.2456 12.1689 65.7379 12.1689C66.2296 12.1689 66.7151 12.2771 67.1615 12.4858C67.6036 12.6924 68.0041 12.9788 68.3439 13.3308C68.6769 13.6866 68.9447 14.0993 69.1338 14.5494C69.3292 15.0141 69.4296 15.5135 69.4296 16.018C69.4296 16.5225 69.3292 17.0219 69.1338 17.4866C68.9429 17.9455 68.675 18.368 68.342 18.7358C68.0134 19.0951 67.6185 19.3869 67.1795 19.5949C66.7324 19.8038 66.2463 19.9119 65.754 19.9119C65.2611 19.9119 64.775 19.8038 64.3279 19.5949C63.8809 19.3909 63.4791 19.0979 63.1474 18.7338C62.8057 18.3732 62.5323 17.9526 62.3413 17.4927C62.1465 17.0286 62.0453 16.5302 62.0432 16.0263C62.0411 15.5225 62.1383 15.0233 62.3289 14.5576Z" fill="white"/>
<path d="M94.54 10.8019C94.548 10.7231 94.5381 10.6435 94.5114 10.569C94.4842 10.4946 94.4414 10.4273 94.385 10.3722C94.3285 10.317 94.2603 10.2755 94.1853 10.2507C94.1109 10.2259 94.0315 10.2185 93.9534 10.2291H93.0692C92.9923 10.22 92.9142 10.2286 92.8411 10.2542C92.7679 10.2797 92.7015 10.3215 92.6464 10.3767C92.5918 10.4317 92.5503 10.4985 92.5242 10.5722C92.4988 10.6459 92.4901 10.7244 92.4988 10.8019V17.2652C92.5062 17.6439 92.4244 18.019 92.2607 18.36C92.1206 18.6719 91.9141 18.9492 91.6568 19.1725C91.405 19.3816 91.1211 19.547 90.816 19.662C90.4737 19.7898 90.1098 19.846 89.7452 19.8272C89.3806 19.8083 89.0235 19.7148 88.6961 19.5523C88.3861 19.3904 88.117 19.1582 87.9105 18.8739C87.7046 18.6034 87.5583 18.2917 87.4814 17.9599C87.3971 17.6223 87.3524 17.276 87.3481 16.928V10.9684C87.358 10.7735 87.3121 10.5799 87.2173 10.4099C87.1454 10.3356 87.0579 10.2788 86.9612 10.2436C86.8645 10.2084 86.7616 10.1958 86.6592 10.2067H86.0225C85.9276 10.2035 85.8327 10.2199 85.7447 10.2549C85.656 10.2898 85.576 10.3425 85.5085 10.4099C85.4378 10.4892 85.3832 10.582 85.3491 10.6829C85.3144 10.7837 85.3001 10.8904 85.3069 10.9969V16.9463C85.2995 17.5961 85.3962 18.2429 85.5934 18.8617C85.7788 19.438 86.0721 19.9731 86.4577 20.4379C86.8428 20.8927 87.3252 21.2539 87.8683 21.4941C88.8126 21.8822 89.85 21.9819 90.8507 21.7805C91.1204 21.7149 91.3846 21.6245 91.6382 21.5104C91.875 21.3996 92.0945 21.2545 92.2892 21.0797L92.4281 20.9497L92.505 20.8746V21.3275C92.5031 21.3943 92.5143 21.4607 92.5385 21.5229C92.5633 21.585 92.5992 21.6415 92.6457 21.6891C92.6991 21.7558 92.7673 21.8089 92.8448 21.8442C92.9217 21.8794 93.0066 21.8959 93.0909 21.8922H93.9856C94.0588 21.8937 94.1307 21.8805 94.1983 21.8533C94.2659 21.826 94.3273 21.7854 94.3788 21.7338C94.4352 21.6834 94.4792 21.6205 94.5071 21.5499C94.535 21.4794 94.5462 21.4032 94.54 21.3275V10.8019Z" fill="white"/>
<path d="M117.034 17.1271C116.848 16.7344 116.579 16.3877 116.244 16.1116C115.879 15.8114 115.472 15.5671 115.035 15.3864C114.542 15.1799 114.031 15.0208 113.508 14.9111C113.253 14.8529 113.002 14.7762 112.759 14.6816C112.538 14.6005 112.328 14.4927 112.134 14.3607C111.871 14.2009 111.667 13.9591 111.553 13.6721C111.487 13.4613 111.487 13.2349 111.553 13.0241C111.624 12.7865 111.922 12.1324 113.075 12.0593C114.177 11.9902 114.731 12.5732 114.922 12.8332C114.951 12.8697 115.221 13.2212 115.414 13.4426C115.449 13.4743 115.488 13.5016 115.529 13.5238C115.608 13.5547 115.694 13.5651 115.778 13.5541C115.862 13.5431 115.942 13.5111 116.011 13.4608L116.684 12.9571C116.757 12.9131 116.817 12.8506 116.859 12.7758C116.902 12.701 116.924 12.6165 116.923 12.5306V12.5102C116.894 12.3797 116.842 12.2553 116.77 12.1426C116.572 11.8553 116.356 11.58 116.125 11.3179C115.92 11.0741 115.68 10.8625 115.412 10.6903C115.135 10.5169 114.833 10.3862 114.518 10.3023C113.619 10.0727 112.672 10.1094 111.793 10.4079C111.349 10.5417 110.938 10.7664 110.584 11.0681C110.246 11.3507 109.976 11.7061 109.792 12.1081C109.609 12.5104 109.512 12.9466 109.506 13.3889C109.5 13.8313 109.585 14.2701 109.756 14.6775C109.921 15.0476 110.166 15.3763 110.471 15.6403C110.8 15.9247 111.163 16.1681 111.549 16.3654C112.003 16.5802 112.475 16.7529 112.96 16.8814C113.103 16.9139 113.246 16.9525 113.395 16.9931C113.544 17.0337 113.689 17.0723 113.836 17.1068C114.097 17.1703 114.35 17.2644 114.588 17.3871C114.789 17.4837 114.967 17.6222 115.11 17.7934C115.236 17.9796 115.301 18.2005 115.297 18.4256C115.293 18.6507 115.22 18.8691 115.088 19.0507C114.941 19.2399 114.761 19.3997 114.556 19.5219C114.346 19.6449 114.12 19.7379 113.885 19.7982C113.487 19.8886 113.074 19.8886 112.676 19.7982C112.467 19.7437 112.264 19.6675 112.072 19.5707C111.876 19.4722 111.694 19.3494 111.529 19.2051C111.379 19.0365 111.249 18.8511 111.14 18.6526C111.089 18.5343 111.013 18.4288 110.916 18.3438C110.84 18.2794 110.746 18.2391 110.647 18.2279C110.547 18.2167 110.448 18.2351 110.358 18.2809L109.552 18.6647C109.484 18.6937 109.422 18.7351 109.369 18.7866C109.325 18.8306 109.29 18.8822 109.264 18.939C109.233 19.0198 109.226 19.1081 109.244 19.1929C109.252 19.2782 109.273 19.3618 109.307 19.4407C109.446 19.8091 109.644 20.1521 109.893 20.4563C110.169 20.7881 110.506 21.0639 110.884 21.2687C111.238 21.4816 111.623 21.6359 112.025 21.7258C112.949 21.9464 113.914 21.9155 114.822 21.6364C115.301 21.5015 115.75 21.2723 116.141 20.9621C116.519 20.6747 116.823 20.2999 117.026 19.8692C117.226 19.4404 117.33 18.9727 117.331 18.4991C117.333 18.0254 117.232 17.5572 117.034 17.1271Z" fill="white"/>
</g>
<defs>
<clipPath id="clip0_2_231">
<rect width="117.188" height="25" fill="white" transform="translate(0.234375)"/>
</clipPath>
</defs>
</svg>
