<svg width="106" height="25" viewBox="0 0 106 25" fill="none" xmlns="http://www.w3.org/2000/svg">
<g clip-path="url(#clip0_2_256)">
<path d="M96.7535 17.328C92.0941 17.328 88.3033 13.5425 88.3033 8.88962V0.451294H105.203V8.88962C105.203 13.542 101.412 17.328 96.7535 17.328ZM89.8395 1.98553V8.88962C89.8395 12.6961 92.9407 15.7937 96.7535 15.7937C100.565 15.7937 103.667 12.6966 103.667 8.88962V1.98553H89.8395Z" fill="white"/>
<path d="M100.594 5.56531H92.9126V7.09955H93.9625L93.4308 11.3509H94.9791L95.5116 7.09955H97.9953L98.5278 11.3509H100.076L99.5444 7.09955H100.594V5.56531Z" fill="white"/>
<path d="M9.67425 2.98678C14.2069 2.98678 16.6246 5.09893 16.6246 8.11627C16.6246 10.5307 14.8112 12.341 12.394 13.0054V13.0657C16.1713 14.0011 17.531 16.2038 17.531 18.5276C17.531 21.8467 15.1134 24.1102 10.5812 24.1102H0.609375V23.5068C2.42275 23.5068 2.42275 23.5068 2.42275 21.545V5.55152C2.42275 3.58974 2.42275 3.58974 0.609375 3.58974V2.98627H9.67425V2.98678ZM7.86136 12.9445C10.5812 12.9445 11.6381 11.1342 11.6381 8.26711C11.6381 5.70188 10.5806 3.58974 8.76779 3.58974H7.25707V12.9445H7.86136ZM7.25707 13.548V23.5068H9.3721C11.7892 23.5068 12.5451 21.0924 12.5451 18.3768C12.5451 15.6612 11.1855 13.5485 8.46564 13.5485H7.25707V13.548Z" fill="white"/>
<path d="M18.7375 16.7169C18.7375 11.5869 22.9681 8.71994 26.7449 8.71994C30.2201 8.71994 33.3624 10.2286 32.4559 15.3586H23.512C23.512 19.4325 25.8385 20.9412 28.105 20.9412C30.8248 20.9412 32.0335 19.4325 32.6378 18.3759H32.9398C32.3356 21.3933 30.2201 24.4112 26.4433 24.4112C21.4574 24.4116 18.7375 20.7908 18.7375 16.7169ZM23.512 14.7551H27.954C28.4676 12.7033 28.8906 9.32335 26.5943 9.32335C24.8716 9.32335 23.6328 10.923 23.512 14.7551Z" fill="white"/>
<path d="M45.3273 12.9445C45.3273 11.5867 44.4208 11.1342 43.5144 11.1342C42.5778 11.1342 41.5505 11.5867 40.493 12.492V21.5445C40.493 23.5063 40.493 23.5063 42.3058 23.5063V24.1098H33.8448V23.5063C35.6576 23.5063 35.6576 23.5063 35.6576 21.5445V12.0393C35.6576 10.5307 35.6576 10.5307 34.1469 10.5307V10.078L40.3414 8.72021H40.5831L40.4924 11.8885H40.5529C41.7011 9.92718 43.877 8.72021 46.0826 8.72021C48.107 8.72021 50.1621 9.92718 50.1621 13.2468V21.5455C50.1621 23.5073 50.1621 23.5073 51.9749 23.5073V24.1107H44.1187V23.5073C45.3273 23.5073 45.3273 23.5073 45.3273 21.5455V12.9445Z" fill="white"/>
<path d="M61.9447 20.9417C64.6645 20.9417 65.8731 19.433 66.4774 18.3765H66.78C66.1752 21.3938 64.0602 24.4116 60.2829 24.4116C55.297 24.4116 52.5777 20.7908 52.5777 16.7169C52.5777 11.5869 56.8083 8.71994 60.5851 8.71994C64.3624 8.71994 66.357 10.561 66.357 12.4921C66.357 13.5477 65.8736 14.6043 64.0607 14.6043C62.55 14.6043 62.2171 13.6689 62.2473 13.0352C62.399 10.8321 62.2473 9.32335 60.4345 9.32335C58.3195 9.32335 57.3521 12.13 57.3521 15.6302C57.3521 19.5839 59.6786 20.9417 61.9447 20.9417Z" fill="white"/>
<path d="M79.1675 12.9445C79.1675 11.5867 78.261 11.1341 77.3544 11.1341C76.4177 11.1341 75.3904 11.5867 74.3329 12.4919V21.5445C74.3329 23.5062 74.3329 23.5062 76.1463 23.5062V24.1097H67.6852V23.5062C69.4985 23.5062 69.4985 23.5062 69.4985 21.5445V4.19371C69.4985 2.68452 69.4985 2.68452 67.9879 2.68452V2.23192L74.0917 0.874115H74.3334V11.8884H74.3938C75.542 9.92714 77.717 8.72024 79.9238 8.72024C81.9485 8.72024 84.0028 9.92714 84.0028 13.2468V21.5455C84.0028 23.5073 84.0028 23.5073 85.8167 23.5073V24.1108H77.959V23.5073C79.1675 23.5073 79.1675 23.5073 79.1675 21.5455V12.9445Z" fill="white"/>
</g>
<defs>
<clipPath id="clip0_2_256">
<rect width="104.688" height="25" fill="white" transform="translate(0.609375)"/>
</clipPath>
</defs>
</svg>
